<svg version="1.1" xmlns="http://www.w3.org/2000/svg" viewBox="0 0 6548.357662141716 2599.407602891968" width="13096.715324283432" height="5198.815205783936" filter="invert(93%) hue-rotate(180deg)">
  <!-- svg-source:excalidraw -->
  
  <defs>
    <style class="style-fonts">
      @font-face {
        font-family: "Virgil";
        src: url("https://excalidraw.com/Virgil.woff2");
      }
      @font-face {
        font-family: "Cascadia";
        src: url("https://excalidraw.com/Cascadia.woff2");
      }
      @font-face {
        font-family: "Assistant";
        src: url("https://excalidraw.com/Assistant-Regular.woff2");
      }
    </style>
    
  </defs>
  <rect x="0" y="0" width="6548.357662141716" height="2599.407602891968" fill="#ffffff"></rect><g transform="translate(393.58739809129474 10) rotate(0 215.78334045410156 22.5)"><text x="0" y="31.536" font-family="Virgil, Segoe UI Emoji" font-size="36px" fill="#1e1e1e" text-anchor="start" style="white-space: pre;" direction="ltr" dominant-baseline="alphabetic">Distributed File Storage</text></g><g transform="translate(10.00000040764644 169.86570003825545) rotate(0 113.21666717529297 22.5)"><text x="0" y="31.536" font-family="Virgil, Segoe UI Emoji" font-size="36px" fill="#1e1e1e" text-anchor="start" style="white-space: pre;" direction="ltr" dominant-baseline="alphabetic">Requirements</text></g><g transform="translate(330.20259740764595 169.86570003825545) rotate(0 116.53333282470703 22.5)"><text x="0" y="31.536" font-family="Virgil, Segoe UI Emoji" font-size="36px" fill="#1e1e1e" text-anchor="start" style="white-space: pre;" direction="ltr" dominant-baseline="alphabetic">Core Entities</text></g><g transform="translate(696.909617407644 169.86570003825364) rotate(0 33.516666412353516 22.5)"><text x="0" y="31.536" font-family="Virgil, Segoe UI Emoji" font-size="36px" fill="#1e1e1e" text-anchor="start" style="white-space: pre;" direction="ltr" dominant-baseline="alphabetic">API</text></g><g transform="translate(897.5833044076389 169.86570003825364) rotate(0 34.733333587646484 22.5)"><text x="0" y="31.536" font-family="Virgil, Segoe UI Emoji" font-size="36px" fill="#1e1e1e" text-anchor="start" style="white-space: pre;" direction="ltr" dominant-baseline="alphabetic">HLD</text></g><g transform="translate(1075.9427524076382 169.86570003825545) rotate(0 35.599998474121094 22.5)"><text x="0" y="31.536" font-family="Virgil, Segoe UI Emoji" font-size="36px" fill="#1e1e1e" text-anchor="start" style="white-space: pre;" direction="ltr" dominant-baseline="alphabetic">LLD</text></g><g transform="translate(10 367.84629275381485) rotate(0 87.19999694824219 22.5)"><text x="0" y="31.536" font-family="Virgil, Segoe UI Emoji" font-size="36px" fill="#1e1e1e" text-anchor="start" style="white-space: pre;" direction="ltr" dominant-baseline="alphabetic">Functional</text></g><g transform="translate(959.4094189999996 367.84629275381303) rotate(0 116.53333282470703 22.5)"><text x="0" y="31.536" font-family="Virgil, Segoe UI Emoji" font-size="36px" fill="#1e1e1e" text-anchor="start" style="white-space: pre;" direction="ltr" dominant-baseline="alphabetic">Core Entities</text></g><g transform="translate(1511.189279000002 367.8462927538094) rotate(0 33.516666412353516 22.5)"><text x="0" y="31.536" font-family="Virgil, Segoe UI Emoji" font-size="36px" fill="#1e1e1e" text-anchor="start" style="white-space: pre;" direction="ltr" dominant-baseline="alphabetic">API</text></g><g transform="translate(3000.760691000007 289.23977075380753) rotate(0 95.53333282470703 61.80326091607549)"><text x="0" y="86.62345049997137" font-family="Virgil, Segoe UI Emoji" font-size="98.88521746572073px" fill="#1e1e1e" text-anchor="start" style="white-space: pre;" direction="ltr" dominant-baseline="alphabetic">HLD</text></g><g transform="translate(10 802.6796477538173) rotate(0 126.16666412353516 22.5)"><text x="0" y="31.536" font-family="Virgil, Segoe UI Emoji" font-size="36px" fill="#1e1e1e" text-anchor="start" style="white-space: pre;" direction="ltr" dominant-baseline="alphabetic">Non Functional</text></g><g transform="translate(22.180661590238742 438.59278847571295) rotate(0 314.8999938964844 122.5)"><text x="0" y="24.528" font-family="Virgil, Segoe UI Emoji" font-size="28px" fill="#1e1e1e" text-anchor="start" style="white-space: pre;" direction="ltr" dominant-baseline="alphabetic">- Upload a File</text><text x="0" y="59.528" font-family="Virgil, Segoe UI Emoji" font-size="28px" fill="#1e1e1e" text-anchor="start" style="white-space: pre;" direction="ltr" dominant-baseline="alphabetic">- View Uploaded Files</text><text x="0" y="94.52799999999999" font-family="Virgil, Segoe UI Emoji" font-size="28px" fill="#1e1e1e" text-anchor="start" style="white-space: pre;" direction="ltr" dominant-baseline="alphabetic">- Share/Unshare Files</text><text x="0" y="129.528" font-family="Virgil, Segoe UI Emoji" font-size="28px" fill="#1e1e1e" text-anchor="start" style="white-space: pre;" direction="ltr" dominant-baseline="alphabetic">- View shared files</text><text x="0" y="164.528" font-family="Virgil, Segoe UI Emoji" font-size="28px" fill="#1e1e1e" text-anchor="start" style="white-space: pre;" direction="ltr" dominant-baseline="alphabetic">- Delete own Files</text><text x="0" y="199.528" font-family="Virgil, Segoe UI Emoji" font-size="28px" fill="#1e1e1e" text-anchor="start" style="white-space: pre;" direction="ltr" dominant-baseline="alphabetic">- Sync across devices</text><text x="0" y="234.528" font-family="Virgil, Segoe UI Emoji" font-size="28px" fill="#1e1e1e" text-anchor="start" style="white-space: pre;" direction="ltr" dominant-baseline="alphabetic">- [Optional] Integrate existing blob storages</text></g><g transform="translate(18.056065908731398 880.8589938941641) rotate(0 390.0833435058594 70)"><text x="0" y="24.528" font-family="Virgil, Segoe UI Emoji" font-size="28px" fill="#1e1e1e" text-anchor="start" style="white-space: pre;" direction="ltr" dominant-baseline="alphabetic">- Causal Consistency for File Chunk Upload &amp; Update</text><text x="0" y="59.528" font-family="Virgil, Segoe UI Emoji" font-size="28px" fill="#1e1e1e" text-anchor="start" style="white-space: pre;" direction="ltr" dominant-baseline="alphabetic">- Availability for viewing files, permission changes, shares</text><text x="0" y="94.52799999999999" font-family="Virgil, Segoe UI Emoji" font-size="28px" fill="#1e1e1e" text-anchor="start" style="white-space: pre;" direction="ltr" dominant-baseline="alphabetic">- Read/Write ratio (possibly read heavy)</text><text x="0" y="129.528" font-family="Virgil, Segoe UI Emoji" font-size="28px" fill="#1e1e1e" text-anchor="start" style="white-space: pre;" direction="ltr" dominant-baseline="alphabetic">- Data privacy</text></g><g transform="translate(959.409419108677 438.59278847358473) rotate(0 112.3499984741211 105)"><text x="0" y="24.528" font-family="Virgil, Segoe UI Emoji" font-size="28px" fill="#1e1e1e" text-anchor="start" style="white-space: pre;" direction="ltr" dominant-baseline="alphabetic">- User</text><text x="0" y="59.528" font-family="Virgil, Segoe UI Emoji" font-size="28px" fill="#1e1e1e" text-anchor="start" style="white-space: pre;" direction="ltr" dominant-baseline="alphabetic">- Session</text><text x="0" y="94.52799999999999" font-family="Virgil, Segoe UI Emoji" font-size="28px" fill="#1e1e1e" text-anchor="start" style="white-space: pre;" direction="ltr" dominant-baseline="alphabetic">- File</text><text x="0" y="129.528" font-family="Virgil, Segoe UI Emoji" font-size="28px" fill="#1e1e1e" text-anchor="start" style="white-space: pre;" direction="ltr" dominant-baseline="alphabetic">- File Metadata</text><text x="0" y="164.528" font-family="Virgil, Segoe UI Emoji" font-size="28px" fill="#1e1e1e" text-anchor="start" style="white-space: pre;" direction="ltr" dominant-baseline="alphabetic">- Permissions</text><text x="0" y="199.528" font-family="Virgil, Segoe UI Emoji" font-size="28px" fill="#1e1e1e" text-anchor="start" style="white-space: pre;" direction="ltr" dominant-baseline="alphabetic">- Notification</text></g><g transform="translate(1511.1892790619895 455.96387985376714) rotate(0 312.8500061035156 140.0000000000009)"><text x="0" y="24.528" font-family="Virgil, Segoe UI Emoji" font-size="28px" fill="#1e1e1e" text-anchor="start" style="white-space: pre;" direction="ltr" dominant-baseline="alphabetic">GET /login (simple email/pass)</text><text x="0" y="59.528" font-family="Virgil, Segoe UI Emoji" font-size="28px" fill="#1e1e1e" text-anchor="start" style="white-space: pre;" direction="ltr" dominant-baseline="alphabetic"></text><text x="0" y="94.52799999999999" font-family="Virgil, Segoe UI Emoji" font-size="28px" fill="#1e1e1e" text-anchor="start" style="white-space: pre;" direction="ltr" dominant-baseline="alphabetic">POST /auth/callback (for Auth0 integration)</text><text x="0" y="129.528" font-family="Virgil, Segoe UI Emoji" font-size="28px" fill="#1e1e1e" text-anchor="start" style="white-space: pre;" direction="ltr" dominant-baseline="alphabetic">(Laters)</text><text x="0" y="164.528" font-family="Virgil, Segoe UI Emoji" font-size="28px" fill="#1e1e1e" text-anchor="start" style="white-space: pre;" direction="ltr" dominant-baseline="alphabetic"></text><text x="0" y="199.528" font-family="Virgil, Segoe UI Emoji" font-size="28px" fill="#1e1e1e" text-anchor="start" style="white-space: pre;" direction="ltr" dominant-baseline="alphabetic">GET /user/profile</text><text x="0" y="234.528" font-family="Virgil, Segoe UI Emoji" font-size="28px" fill="#1e1e1e" text-anchor="start" style="white-space: pre;" direction="ltr" dominant-baseline="alphabetic">- H 'Authorizarion: Bearer &lt;token&gt;</text><text x="0" y="269.528" font-family="Virgil, Segoe UI Emoji" font-size="28px" fill="#1e1e1e" text-anchor="start" style="white-space: pre;" direction="ltr" dominant-baseline="alphabetic"></text></g><g transform="translate(1511.1892790556303 794.3064304569107) rotate(0 465.51666259765625 507.5)"><text x="0" y="24.528" font-family="Virgil, Segoe UI Emoji" font-size="28px" fill="#1e1e1e" text-anchor="start" style="white-space: pre;" direction="ltr" dominant-baseline="alphabetic">GET /my/drive</text><text x="0" y="59.528" font-family="Virgil, Segoe UI Emoji" font-size="28px" fill="#1e1e1e" text-anchor="start" style="white-space: pre;" direction="ltr" dominant-baseline="alphabetic">- H 'Authorization: Bearer &lt;token&gt;</text><text x="0" y="94.52799999999999" font-family="Virgil, Segoe UI Emoji" font-size="28px" fill="#1e1e1e" text-anchor="start" style="white-space: pre;" direction="ltr" dominant-baseline="alphabetic"></text><text x="0" y="129.528" font-family="Virgil, Segoe UI Emoji" font-size="28px" fill="#1e1e1e" text-anchor="start" style="white-space: pre;" direction="ltr" dominant-baseline="alphabetic"></text><text x="0" y="164.528" font-family="Virgil, Segoe UI Emoji" font-size="28px" fill="#1e1e1e" text-anchor="start" style="white-space: pre;" direction="ltr" dominant-baseline="alphabetic">POST /my/drive/upload</text><text x="0" y="199.528" font-family="Virgil, Segoe UI Emoji" font-size="28px" fill="#1e1e1e" text-anchor="start" style="white-space: pre;" direction="ltr" dominant-baseline="alphabetic">-H 'Authorization: Bearer &lt;token&gt;'</text><text x="0" y="234.528" font-family="Virgil, Segoe UI Emoji" font-size="28px" fill="#1e1e1e" text-anchor="start" style="white-space: pre;" direction="ltr" dominant-baseline="alphabetic">-d '{</text><text x="0" y="269.528" font-family="Virgil, Segoe UI Emoji" font-size="28px" fill="#1e1e1e" text-anchor="start" style="white-space: pre;" direction="ltr" dominant-baseline="alphabetic">    fileName: '', </text><text x="0" y="304.528" font-family="Virgil, Segoe UI Emoji" font-size="28px" fill="#1e1e1e" text-anchor="start" style="white-space: pre;" direction="ltr" dominant-baseline="alphabetic">    fileHash: '',</text><text x="0" y="339.528" font-family="Virgil, Segoe UI Emoji" font-size="28px" fill="#1e1e1e" text-anchor="start" style="white-space: pre;" direction="ltr" dominant-baseline="alphabetic">    fileSize: 0,</text><text x="0" y="374.528" font-family="Virgil, Segoe UI Emoji" font-size="28px" fill="#1e1e1e" text-anchor="start" style="white-space: pre;" direction="ltr" dominant-baseline="alphabetic">    mimeType: '',</text><text x="0" y="409.528" font-family="Virgil, Segoe UI Emoji" font-size="28px" fill="#1e1e1e" text-anchor="start" style="white-space: pre;" direction="ltr" dominant-baseline="alphabetic">    chunks: [</text><text x="0" y="444.528" font-family="Virgil, Segoe UI Emoji" font-size="28px" fill="#1e1e1e" text-anchor="start" style="white-space: pre;" direction="ltr" dominant-baseline="alphabetic">        {id: 1, content_boundary: [start_byte, end_byte], hash: ''}</text><text x="0" y="479.528" font-family="Virgil, Segoe UI Emoji" font-size="28px" fill="#1e1e1e" text-anchor="start" style="white-space: pre;" direction="ltr" dominant-baseline="alphabetic">    ]</text><text x="0" y="514.528" font-family="Virgil, Segoe UI Emoji" font-size="28px" fill="#1e1e1e" text-anchor="start" style="white-space: pre;" direction="ltr" dominant-baseline="alphabetic">}'</text><text x="0" y="549.528" font-family="Virgil, Segoe UI Emoji" font-size="28px" fill="#1e1e1e" text-anchor="start" style="white-space: pre;" direction="ltr" dominant-baseline="alphabetic"></text><text x="0" y="584.528" font-family="Virgil, Segoe UI Emoji" font-size="28px" fill="#1e1e1e" text-anchor="start" style="white-space: pre;" direction="ltr" dominant-baseline="alphabetic">response:</text><text x="0" y="619.528" font-family="Virgil, Segoe UI Emoji" font-size="28px" fill="#1e1e1e" text-anchor="start" style="white-space: pre;" direction="ltr" dominant-baseline="alphabetic">{fileID: '',  upload_status: 'pending'}</text><text x="0" y="654.528" font-family="Virgil, Segoe UI Emoji" font-size="28px" fill="#1e1e1e" text-anchor="start" style="white-space: pre;" direction="ltr" dominant-baseline="alphabetic"></text><text x="0" y="689.528" font-family="Virgil, Segoe UI Emoji" font-size="28px" fill="#1e1e1e" text-anchor="start" style="white-space: pre;" direction="ltr" dominant-baseline="alphabetic"></text><text x="0" y="724.528" font-family="Virgil, Segoe UI Emoji" font-size="28px" fill="#1e1e1e" text-anchor="start" style="white-space: pre;" direction="ltr" dominant-baseline="alphabetic"></text><text x="0" y="759.528" font-family="Virgil, Segoe UI Emoji" font-size="28px" fill="#1e1e1e" text-anchor="start" style="white-space: pre;" direction="ltr" dominant-baseline="alphabetic">POST /my/drive/upload/:fileID/chunks</text><text x="0" y="794.528" font-family="Virgil, Segoe UI Emoji" font-size="28px" fill="#1e1e1e" text-anchor="start" style="white-space: pre;" direction="ltr" dominant-baseline="alphabetic">-H 'Authorizqtion: Beqrer'</text><text x="0" y="829.528" font-family="Virgil, Segoe UI Emoji" font-size="28px" fill="#1e1e1e" text-anchor="start" style="white-space: pre;" direction="ltr" dominant-baseline="alphabetic">-H 'Content-Type: multipart/form-data'</text><text x="0" y="864.528" font-family="Virgil, Segoe UI Emoji" font-size="28px" fill="#1e1e1e" text-anchor="start" style="white-space: pre;" direction="ltr" dominant-baseline="alphabetic">chunkID: 1</text><text x="0" y="899.528" font-family="Virgil, Segoe UI Emoji" font-size="28px" fill="#1e1e1e" text-anchor="start" style="white-space: pre;" direction="ltr" dominant-baseline="alphabetic">data: &lt;bytes&gt;</text><text x="0" y="934.528" font-family="Virgil, Segoe UI Emoji" font-size="28px" fill="#1e1e1e" text-anchor="start" style="white-space: pre;" direction="ltr" dominant-baseline="alphabetic"></text><text x="0" y="969.528" font-family="Virgil, Segoe UI Emoji" font-size="28px" fill="#1e1e1e" text-anchor="start" style="white-space: pre;" direction="ltr" dominant-baseline="alphabetic">response:</text><text x="0" y="1004.528" font-family="Virgil, Segoe UI Emoji" font-size="28px" fill="#1e1e1e" text-anchor="start" style="white-space: pre;" direction="ltr" dominant-baseline="alphabetic">{fileID: , chunkID: , status: 'success'} </text></g><g transform="translate(1511.1892788776022 2000.38703872499) rotate(0 220.28334045410156 70)"><text x="0" y="24.528" font-family="Virgil, Segoe UI Emoji" font-size="28px" fill="#1e1e1e" text-anchor="start" style="white-space: pre;" direction="ltr" dominant-baseline="alphabetic">PATCH /my/drive/share</text><text x="0" y="59.528" font-family="Virgil, Segoe UI Emoji" font-size="28px" fill="#1e1e1e" text-anchor="start" style="white-space: pre;" direction="ltr" dominant-baseline="alphabetic"></text><text x="0" y="94.52799999999999" font-family="Virgil, Segoe UI Emoji" font-size="28px" fill="#1e1e1e" text-anchor="start" style="white-space: pre;" direction="ltr" dominant-baseline="alphabetic">-H 'Authorization: Bearer'</text><text x="0" y="129.528" font-family="Virgil, Segoe UI Emoji" font-size="28px" fill="#1e1e1e" text-anchor="start" style="white-space: pre;" direction="ltr" dominant-baseline="alphabetic">-d {email_or_id: '', file_ids: []}</text></g><g transform="translate(1511.1892788776022 2286.2295897249915) rotate(0 220.28334045410156 70)"><text x="0" y="24.528" font-family="Virgil, Segoe UI Emoji" font-size="28px" fill="#1e1e1e" text-anchor="start" style="white-space: pre;" direction="ltr" dominant-baseline="alphabetic">DELETE /my/drive/share</text><text x="0" y="59.528" font-family="Virgil, Segoe UI Emoji" font-size="28px" fill="#1e1e1e" text-anchor="start" style="white-space: pre;" direction="ltr" dominant-baseline="alphabetic"></text><text x="0" y="94.52799999999999" font-family="Virgil, Segoe UI Emoji" font-size="28px" fill="#1e1e1e" text-anchor="start" style="white-space: pre;" direction="ltr" dominant-baseline="alphabetic">-H 'Authorization: Bearer'</text><text x="0" y="129.528" font-family="Virgil, Segoe UI Emoji" font-size="28px" fill="#1e1e1e" text-anchor="start" style="white-space: pre;" direction="ltr" dominant-baseline="alphabetic">-d {email_or_id: '', file_ids: []}</text></g><g stroke-linecap="round" transform="translate(3572.829364951329 1740.45280974273) rotate(0 109.98164921888565 63.18094742361427)"><path d="M31.59 0 C79.86 0, 128.13 0, 188.37 0 M31.59 0 C70.43 0, 109.26 0, 188.37 0 M188.37 0 C209.43 0, 219.96 10.53, 219.96 31.59 M188.37 0 C209.43 0, 219.96 10.53, 219.96 31.59 M219.96 31.59 C219.96 51.34, 219.96 71.1, 219.96 94.77 M219.96 31.59 C219.96 51.01, 219.96 70.43, 219.96 94.77 M219.96 94.77 C219.96 115.83, 209.43 126.36, 188.37 126.36 M219.96 94.77 C219.96 115.83, 209.43 126.36, 188.37 126.36 M188.37 126.36 C156.11 126.36, 123.84 126.36, 31.59 126.36 M188.37 126.36 C147.61 126.36, 106.86 126.36, 31.59 126.36 M31.59 126.36 C10.53 126.36, 0 115.83, 0 94.77 M31.59 126.36 C10.53 126.36, 0 115.83, 0 94.77 M0 94.77 C0 74.36, 0 53.95, 0 31.59 M0 94.77 C0 81.3, 0 67.83, 0 31.59 M0 31.59 C0 10.53, 10.53 0, 31.59 0 M0 31.59 C0 10.53, 10.53 0, 31.59 0" stroke="#1e1e1e" stroke-width="4" fill="none"></path></g><g transform="translate(3634.1110138869008 1781.133757227346) rotate(0 48.70000076293945 22.5)"><text x="0" y="31.536" font-family="Virgil, Segoe UI Emoji" font-size="36px" fill="#1e1e1e" text-anchor="start" style="white-space: pre;" direction="ltr" dominant-baseline="alphabetic">Client</text></g><g stroke-linecap="round" transform="translate(3155.705388230239 1583.4058299596127) rotate(0 132.08043186054238 51.48077197479688)"><path d="M25.74 0 C87.82 0, 149.9 0, 238.42 0 M25.74 0 C78.06 0, 130.37 0, 238.42 0 M238.42 0 C255.58 0, 264.16 8.58, 264.16 25.74 M238.42 0 C255.58 0, 264.16 8.58, 264.16 25.74 M264.16 25.74 C264.16 40.04, 264.16 54.33, 264.16 77.22 M264.16 25.74 C264.16 39.04, 264.16 52.33, 264.16 77.22 M264.16 77.22 C264.16 94.38, 255.58 102.96, 238.42 102.96 M264.16 77.22 C264.16 94.38, 255.58 102.96, 238.42 102.96 M238.42 102.96 C166.39 102.96, 94.36 102.96, 25.74 102.96 M238.42 102.96 C189.93 102.96, 141.44 102.96, 25.74 102.96 M25.74 102.96 C8.58 102.96, 0 94.38, 0 77.22 M25.74 102.96 C8.58 102.96, 0 94.38, 0 77.22 M0 77.22 C0 64.47, 0 51.71, 0 25.74 M0 77.22 C0 62.87, 0 48.52, 0 25.74 M0 25.74 C0 8.58, 8.58 0, 25.74 0 M0 25.74 C0 8.58, 8.58 0, 25.74 0" stroke="#1e1e1e" stroke-width="4" fill="none"></path></g><g transform="translate(3167.6358185649005 1612.3866019344114) rotate(0 120.1500015258789 22.5)"><text x="120.1500015258789" y="31.536" font-family="Virgil, Segoe UI Emoji" font-size="36px" fill="#1e1e1e" text-anchor="middle" style="white-space: pre;" direction="ltr" dominant-baseline="alphabetic">Conn Manager</text></g><g stroke-linecap="round" transform="translate(3155.705388230239 1974.1916899596126) rotate(0 132.08043186054238 51.48077197479688)"><path d="M25.74 0 C92.15 0, 158.57 0, 238.42 0 M25.74 0 C90.08 0, 154.43 0, 238.42 0 M238.42 0 C255.58 0, 264.16 8.58, 264.16 25.74 M238.42 0 C255.58 0, 264.16 8.58, 264.16 25.74 M264.16 25.74 C264.16 36.77, 264.16 47.79, 264.16 77.22 M264.16 25.74 C264.16 44.02, 264.16 62.29, 264.16 77.22 M264.16 77.22 C264.16 94.38, 255.58 102.96, 238.42 102.96 M264.16 77.22 C264.16 94.38, 255.58 102.96, 238.42 102.96 M238.42 102.96 C156.53 102.96, 74.64 102.96, 25.74 102.96 M238.42 102.96 C182.52 102.96, 126.62 102.96, 25.74 102.96 M25.74 102.96 C8.58 102.96, 0 94.38, 0 77.22 M25.74 102.96 C8.58 102.96, 0 94.38, 0 77.22 M0 77.22 C0 62.81, 0 48.4, 0 25.74 M0 77.22 C0 58.94, 0 40.66, 0 25.74 M0 25.74 C0 8.58, 8.58 0, 25.74 0 M0 25.74 C0 8.58, 8.58 0, 25.74 0" stroke="#1e1e1e" stroke-width="4" fill="none"></path></g><g transform="translate(3222.319153115277 2003.1724613958268) rotate(0 65.46666717529297 22.5)"><text x="0" y="31.536" font-family="Virgil, Segoe UI Emoji" font-size="36px" fill="#1e1e1e" text-anchor="start" style="white-space: pre;" direction="ltr" dominant-baseline="alphabetic">Chunker</text></g><g stroke-linecap="round" transform="translate(3149.986851515241 1763.8531607427267) rotate(0 133.38200011652043 51.4807720000008)"><path d="M25.74 0 C100.05 0, 174.36 0, 241.02 0 M25.74 0 C83.24 0, 140.73 0, 241.02 0 M241.02 0 C258.18 0, 266.76 8.58, 266.76 25.74 M241.02 0 C258.18 0, 266.76 8.58, 266.76 25.74 M266.76 25.74 C266.76 44.47, 266.76 63.2, 266.76 77.22 M266.76 25.74 C266.76 39.6, 266.76 53.46, 266.76 77.22 M266.76 77.22 C266.76 94.38, 258.18 102.96, 241.02 102.96 M266.76 77.22 C266.76 94.38, 258.18 102.96, 241.02 102.96 M241.02 102.96 C187.58 102.96, 134.13 102.96, 25.74 102.96 M241.02 102.96 C158.8 102.96, 76.58 102.96, 25.74 102.96 M25.74 102.96 C8.58 102.96, 0 94.38, 0 77.22 M25.74 102.96 C8.58 102.96, 0 94.38, 0 77.22 M0 77.22 C0 62.65, 0 48.08, 0 25.74 M0 77.22 C0 62.66, 0 48.09, 0 25.74 M0 25.74 C0 8.58, 8.58 0, 25.74 0 M0 25.74 C0 8.58, 8.58 0, 25.74 0" stroke="#1e1e1e" stroke-width="4" fill="none"></path></g><g transform="translate(3216.669151028622 1792.8339323958335) rotate(0 71.11666870117188 22.5)"><text x="0" y="31.536" font-family="Virgil, Segoe UI Emoji" font-size="36px" fill="#1e1e1e" text-anchor="start" style="white-space: pre;" direction="ltr" dominant-baseline="alphabetic">Watcher</text></g><g stroke-linecap="round" transform="translate(4015.7998354427436 1452.3352227427295) rotate(0 162.63243873856482 443.45097029208046)"><path d="M32 0 C121.72 0, 211.44 0, 293.26 0 M32 0 C92.78 0, 153.57 0, 293.26 0 M293.26 0 C314.6 0, 325.26 10.67, 325.26 32 M293.26 0 C314.6 0, 325.26 10.67, 325.26 32 M325.26 32 C325.26 328.89, 325.26 625.77, 325.26 854.9 M325.26 32 C325.26 324.2, 325.26 616.4, 325.26 854.9 M325.26 854.9 C325.26 876.24, 314.6 886.9, 293.26 886.9 M325.26 854.9 C325.26 876.24, 314.6 886.9, 293.26 886.9 M293.26 886.9 C225.35 886.9, 157.44 886.9, 32 886.9 M293.26 886.9 C225.13 886.9, 156.99 886.9, 32 886.9 M32 886.9 C10.67 886.9, 0 876.24, 0 854.9 M32 886.9 C10.67 886.9, 0 876.24, 0 854.9 M0 854.9 C0 658.5, 0 462.1, 0 32 M0 854.9 C0 606.62, 0 358.34, 0 32 M0 32 C0 10.67, 10.67 0, 32 0 M0 32 C0 10.67, 10.67 0, 32 0" stroke="#1e1e1e" stroke-width="4" fill="none"></path></g><g transform="translate(4058.282272110453 1713.8649085612178) rotate(0 120.1500015258789 67.5)"><text x="0" y="31.536" font-family="Virgil, Segoe UI Emoji" font-size="36px" fill="#1e1e1e" text-anchor="start" style="white-space: pre;" direction="ltr" dominant-baseline="alphabetic">API Gateway</text><text x="0" y="76.536" font-family="Virgil, Segoe UI Emoji" font-size="36px" fill="#1e1e1e" text-anchor="start" style="white-space: pre;" direction="ltr" dominant-baseline="alphabetic">+</text><text x="0" y="121.536" font-family="Virgil, Segoe UI Emoji" font-size="36px" fill="#1e1e1e" text-anchor="start" style="white-space: pre;" direction="ltr" dominant-baseline="alphabetic">LB</text></g><g transform="translate(4048.932273866365 1929.7644999832828) rotate(0 129.5 45)"><text x="0" y="31.536" font-family="Virgil, Segoe UI Emoji" font-size="36px" fill="#1e1e1e" text-anchor="start" style="white-space: pre;" direction="ltr" dominant-baseline="alphabetic">SSL Terminate</text><text x="0" y="76.536" font-family="Virgil, Segoe UI Emoji" font-size="36px" fill="#1e1e1e" text-anchor="start" style="white-space: pre;" direction="ltr" dominant-baseline="alphabetic">Rate Limiter</text></g><g stroke-linecap="round" transform="translate(4685.049870203318 1200.5793580951413) rotate(0 168.48252646297442 114.66171939841297)"><path d="M32 0 C92.26 0, 152.52 0, 304.97 0 M32 0 C94.6 0, 157.2 0, 304.97 0 M304.97 0 C326.3 0, 336.97 10.67, 336.97 32 M304.97 0 C326.3 0, 336.97 10.67, 336.97 32 M336.97 32 C336.97 96.14, 336.97 160.27, 336.97 197.32 M336.97 32 C336.97 91.36, 336.97 150.72, 336.97 197.32 M336.97 197.32 C336.97 218.66, 326.3 229.32, 304.97 229.32 M336.97 197.32 C336.97 218.66, 326.3 229.32, 304.97 229.32 M304.97 229.32 C241.62 229.32, 178.27 229.32, 32 229.32 M304.97 229.32 C223.07 229.32, 141.18 229.32, 32 229.32 M32 229.32 C10.67 229.32, 0 218.66, 0 197.32 M32 229.32 C10.67 229.32, 0 218.66, 0 197.32 M0 197.32 C0 139.85, 0 82.37, 0 32 M0 197.32 C0 146.66, 0 95.99, 0 32 M0 32 C0 10.67, 10.67 0, 32 0 M0 32 C0 10.67, 10.67 0, 32 0" stroke="#1e1e1e" stroke-width="4" fill="none"></path></g><g transform="translate(4781.115732499366 1249.902797107743) rotate(0 72.41666412353516 67.5)"><text x="0" y="31.536" font-family="Virgil, Segoe UI Emoji" font-size="36px" fill="#1e1e1e" text-anchor="start" style="white-space: pre;" direction="ltr" dominant-baseline="alphabetic">Users</text><text x="0" y="76.536" font-family="Virgil, Segoe UI Emoji" font-size="36px" fill="#1e1e1e" text-anchor="start" style="white-space: pre;" direction="ltr" dominant-baseline="alphabetic">&amp;</text><text x="0" y="121.536" font-family="Virgil, Segoe UI Emoji" font-size="36px" fill="#1e1e1e" text-anchor="start" style="white-space: pre;" direction="ltr" dominant-baseline="alphabetic">Sessions</text></g><g stroke-linecap="round" transform="translate(4685.049870203318 1587.080960095138) rotate(0 168.48252646297442 114.66171939841297)"><path d="M32 0 C125.38 0, 218.76 0, 304.97 0 M32 0 C88.78 0, 145.56 0, 304.97 0 M304.97 0 C326.3 0, 336.97 10.67, 336.97 32 M304.97 0 C326.3 0, 336.97 10.67, 336.97 32 M336.97 32 C336.97 92.06, 336.97 152.12, 336.97 197.32 M336.97 32 C336.97 68.66, 336.97 105.32, 336.97 197.32 M336.97 197.32 C336.97 218.66, 326.3 229.32, 304.97 229.32 M336.97 197.32 C336.97 218.66, 326.3 229.32, 304.97 229.32 M304.97 229.32 C229.63 229.32, 154.3 229.32, 32 229.32 M304.97 229.32 C208.11 229.32, 111.25 229.32, 32 229.32 M32 229.32 C10.67 229.32, 0 218.66, 0 197.32 M32 229.32 C10.67 229.32, 0 218.66, 0 197.32 M0 197.32 C0 136.16, 0 74.99, 0 32 M0 197.32 C0 156.76, 0 116.21, 0 32 M0 32 C0 10.67, 10.67 0, 32 0 M0 32 C0 10.67, 10.67 0, 32 0" stroke="#1e1e1e" stroke-width="4" fill="none"></path></g><g transform="translate(4763.315729491002 1633.751962893517) rotate(0 90.21666717529297 67.5)"><text x="0" y="31.536" font-family="Virgil, Segoe UI Emoji" font-size="36px" fill="#1e1e1e" text-anchor="start" style="white-space: pre;" direction="ltr" dominant-baseline="alphabetic">File</text><text x="0" y="76.536" font-family="Virgil, Segoe UI Emoji" font-size="36px" fill="#1e1e1e" text-anchor="start" style="white-space: pre;" direction="ltr" dominant-baseline="alphabetic">Metadata</text><text x="0" y="121.536" font-family="Virgil, Segoe UI Emoji" font-size="36px" fill="#1e1e1e" text-anchor="start" style="white-space: pre;" direction="ltr" dominant-baseline="alphabetic">Service</text></g><g stroke-linecap="round" transform="translate(4685.049870203326 814.0777560951374) rotate(0 168.48252646297442 114.66171939841297)"><path d="M32 0 C127.39 0, 222.79 0, 304.97 0 M32 0 C105.09 0, 178.19 0, 304.97 0 M304.97 0 C326.3 0, 336.97 10.67, 336.97 32 M304.97 0 C326.3 0, 336.97 10.67, 336.97 32 M336.97 32 C336.97 81.86, 336.97 131.71, 336.97 197.32 M336.97 32 C336.97 69.96, 336.97 107.93, 336.97 197.32 M336.97 197.32 C336.97 218.66, 326.3 229.32, 304.97 229.32 M336.97 197.32 C336.97 218.66, 326.3 229.32, 304.97 229.32 M304.97 229.32 C207.52 229.32, 110.07 229.32, 32 229.32 M304.97 229.32 C227.99 229.32, 151.01 229.32, 32 229.32 M32 229.32 C10.67 229.32, 0 218.66, 0 197.32 M32 229.32 C10.67 229.32, 0 218.66, 0 197.32 M0 197.32 C0 138.85, 0 80.39, 0 32 M0 197.32 C0 157.31, 0 117.3, 0 32 M0 32 C0 10.67, 10.67 0, 32 0 M0 32 C0 10.67, 10.67 0, 32 0" stroke="#1e1e1e" stroke-width="4" fill="none"></path></g><g transform="translate(4754.882395064691 906.2394752841556) rotate(0 98.6500015258789 22.5)"><text x="0" y="31.536" font-family="Virgil, Segoe UI Emoji" font-size="36px" fill="#1e1e1e" text-anchor="start" style="white-space: pre;" direction="ltr" dominant-baseline="alphabetic">File Service</text></g><g stroke-linecap="round" transform="translate(4685.049870203329 1973.5825620951418) rotate(0 168.48252646297442 114.66171939841297)"><path d="M32 0 C111.6 0, 191.19 0, 304.97 0 M32 0 C105.46 0, 178.91 0, 304.97 0 M304.97 0 C326.3 0, 336.97 10.67, 336.97 32 M304.97 0 C326.3 0, 336.97 10.67, 336.97 32 M336.97 32 C336.97 93.68, 336.97 155.37, 336.97 197.32 M336.97 32 C336.97 89.84, 336.97 147.68, 336.97 197.32 M336.97 197.32 C336.97 218.66, 326.3 229.32, 304.97 229.32 M336.97 197.32 C336.97 218.66, 326.3 229.32, 304.97 229.32 M304.97 229.32 C197.51 229.32, 90.05 229.32, 32 229.32 M304.97 229.32 C238.05 229.32, 171.13 229.32, 32 229.32 M32 229.32 C10.67 229.32, 0 218.66, 0 197.32 M32 229.32 C10.67 229.32, 0 218.66, 0 197.32 M0 197.32 C0 132.26, 0 67.21, 0 32 M0 197.32 C0 142.38, 0 87.45, 0 32 M0 32 C0 10.67, 10.67 0, 32 0 M0 32 C0 10.67, 10.67 0, 32 0" stroke="#1e1e1e" stroke-width="4" fill="none"></path></g><g transform="translate(4746.915727782827 2065.7442815265294) rotate(0 106.61666870117188 22.5)"><text x="0" y="31.536" font-family="Virgil, Segoe UI Emoji" font-size="36px" fill="#1e1e1e" text-anchor="start" style="white-space: pre;" direction="ltr" dominant-baseline="alphabetic">Sync Service</text></g><g stroke-linecap="round" transform="translate(4685.049870203322 2360.084164095142) rotate(0 168.48252646297442 114.66171939841297)"><path d="M32 0 C111.51 0, 191.01 0, 304.97 0 M32 0 C92.52 0, 153.05 0, 304.97 0 M304.97 0 C326.3 0, 336.97 10.67, 336.97 32 M304.97 0 C326.3 0, 336.97 10.67, 336.97 32 M336.97 32 C336.97 78.33, 336.97 124.67, 336.97 197.32 M336.97 32 C336.97 74.4, 336.97 116.81, 336.97 197.32 M336.97 197.32 C336.97 218.66, 326.3 229.32, 304.97 229.32 M336.97 197.32 C336.97 218.66, 326.3 229.32, 304.97 229.32 M304.97 229.32 C239.12 229.32, 173.28 229.32, 32 229.32 M304.97 229.32 C216.44 229.32, 127.92 229.32, 32 229.32 M32 229.32 C10.67 229.32, 0 218.66, 0 197.32 M32 229.32 C10.67 229.32, 0 218.66, 0 197.32 M0 197.32 C0 144.01, 0 90.69, 0 32 M0 197.32 C0 153.16, 0 109, 0 32 M0 32 C0 10.67, 10.67 0, 32 0 M0 32 C0 10.67, 10.67 0, 32 0" stroke="#1e1e1e" stroke-width="4" fill="none"></path></g><g transform="translate(4751.632395782821 2429.745883526526) rotate(0 101.9000015258789 45)"><text x="0" y="31.536" font-family="Virgil, Segoe UI Emoji" font-size="36px" fill="#1e1e1e" text-anchor="start" style="white-space: pre;" direction="ltr" dominant-baseline="alphabetic">Notification</text><text x="0" y="76.536" font-family="Virgil, Segoe UI Emoji" font-size="36px" fill="#1e1e1e" text-anchor="start" style="white-space: pre;" direction="ltr" dominant-baseline="alphabetic">Service</text></g><g transform="translate(5505.256327777541 1363.593067831307) rotate(0 54.96666717529297 25.5941511572928)"><text x="54.96666717529297" y="35.234614759873786" font-family="Virgil, Segoe UI Emoji" font-size="42.65691859548885px" fill="#000000" text-anchor="middle" style="white-space: pre;" direction="ltr" dominant-baseline="alphabetic">Mysql</text></g><g stroke-linecap="round" transform="translate(5490.819291467527 1215.7007844501986) rotate(0 69.40370348530814 69.40370348530814)"><path d="M0 0 C0 0, 0 0, 0 0 M0 0 C0 0, 0 0, 0 0 M0.13 12.04 C2.45 9.38, 4.77 6.71, 10.63 -0.03 M0.13 12.04 C3.67 7.97, 7.21 3.9, 10.63 -0.03 M0.27 24.08 C4.72 18.95, 9.18 13.83, 21.26 -0.07 M0.27 24.08 C7.02 16.32, 13.77 8.55, 21.26 -0.07 M-0.26 36.88 C10.05 25.02, 20.36 13.16, 31.89 -0.1 M-0.26 36.88 C11.44 23.42, 23.14 9.97, 31.89 -0.1 M-0.12 48.92 C16.93 29.3, 33.98 9.68, 42.52 -0.14 M-0.12 48.92 C16.53 29.77, 33.18 10.61, 42.52 -0.14 M0.01 60.96 C20.31 37.61, 40.61 14.25, 53.15 -0.17 M0.01 60.96 C18.41 39.79, 36.82 18.61, 53.15 -0.17 M0.14 73 C21.39 48.56, 42.63 24.13, 63.78 -0.21 M0.14 73 C15.35 55.51, 30.56 38.01, 63.78 -0.21 M0.28 85.04 C23.47 58.36, 46.66 31.68, 74.41 -0.24 M0.28 85.04 C28.58 52.49, 56.88 19.93, 74.41 -0.24 M-0.25 97.84 C18.84 75.88, 37.92 53.93, 85.04 -0.28 M-0.25 97.84 C20.04 74.5, 40.33 51.16, 85.04 -0.28 M-0.11 109.88 C26.19 79.62, 52.49 49.37, 95.67 -0.31 M-0.11 109.88 C25.19 80.77, 50.49 51.67, 95.67 -0.31 M0.02 121.92 C24.76 93.46, 49.5 65, 106.3 -0.34 M0.02 121.92 C37.71 78.56, 75.4 35.2, 106.3 -0.34 M0.15 133.96 C32.87 96.33, 65.58 58.7, 116.27 0.38 M0.15 133.96 C33.19 95.95, 66.23 57.95, 116.27 0.38 M6.19 139.21 C39.61 100.76, 73.03 62.32, 126.91 0.34 M6.19 139.21 C48.89 90.09, 91.58 40.97, 126.91 0.34 M16.82 139.17 C41.19 111.14, 65.56 83.1, 137.54 0.31 M16.82 139.17 C44.67 107.14, 72.52 75.1, 137.54 0.31 M27.45 139.14 C52.57 110.25, 77.68 81.36, 138.98 10.84 M27.45 139.14 C71.65 88.29, 115.86 37.44, 138.98 10.84 M38.08 139.1 C74.03 97.74, 109.99 56.38, 139.11 22.88 M38.08 139.1 C77.22 94.07, 116.37 49.04, 139.11 22.88 M48.71 139.07 C75.88 107.81, 103.05 76.55, 139.25 34.92 M48.71 139.07 C70.5 114, 92.29 88.94, 139.25 34.92 M58.68 139.79 C84.1 110.56, 109.51 81.32, 138.72 47.72 M58.68 139.79 C85.6 108.83, 112.52 77.86, 138.72 47.72 M69.31 139.76 C88.58 117.59, 107.85 95.42, 138.86 59.76 M69.31 139.76 C86.13 120.41, 102.94 101.07, 138.86 59.76 M79.94 139.72 C98.47 118.41, 117 97.09, 138.99 71.8 M79.94 139.72 C100.95 115.56, 121.95 91.39, 138.99 71.8 M90.57 139.69 C104.39 123.79, 118.21 107.89, 139.12 83.84 M90.57 139.69 C107.64 120.05, 124.71 100.42, 139.12 83.84 M101.2 139.65 C109.76 129.81, 118.32 119.96, 139.26 95.88 M101.2 139.65 C109.62 129.97, 118.03 120.29, 139.26 95.88 M111.83 139.62 C117.33 133.29, 122.83 126.96, 138.73 108.67 M111.83 139.62 C120.41 129.75, 128.98 119.89, 138.73 108.67 M122.47 139.58 C128.76 132.34, 135.06 125.09, 138.87 120.71 M122.47 139.58 C125.82 135.72, 129.18 131.86, 138.87 120.71 M133.1 139.55 C134.7 137.7, 136.3 135.86, 139 132.76 M133.1 139.55 C134.8 137.59, 136.51 135.62, 139 132.76 M-0.05 138.76 C-0.05 138.76, -0.05 138.76, -0.05 138.76 M-0.05 138.76 C-0.05 138.76, -0.05 138.76, -0.05 138.76 M11.99 138.63 C8.69 135.76, 5.39 132.89, -0.08 128.13 M11.99 138.63 C9.52 136.48, 7.04 134.33, -0.08 128.13 M24.03 138.5 C18.11 133.35, 12.19 128.21, -0.12 117.5 M24.03 138.5 C16.8 132.21, 9.57 125.93, -0.12 117.5 M36.83 139.02 C23.83 127.72, 10.84 116.43, -0.15 106.87 M36.83 139.02 C29.22 132.4, 21.61 125.79, -0.15 106.87 M48.87 138.89 C35.17 126.98, 21.48 115.08, -0.19 96.24 M48.87 138.89 C37.12 128.68, 25.38 118.47, -0.19 96.24 M60.91 138.75 C36.47 117.51, 12.03 96.26, -0.22 85.61 M60.91 138.75 C46.97 126.64, 33.03 114.52, -0.22 85.61 M72.95 138.62 C56.44 124.27, 39.93 109.92, -0.26 74.98 M72.95 138.62 C46.94 116.01, 20.94 93.41, -0.26 74.98 M84.99 138.49 C62.33 118.79, 39.67 99.09, -0.29 64.35 M84.99 138.49 C67.53 123.31, 50.08 108.14, -0.29 64.35 M97.79 139.01 C70.01 114.87, 42.24 90.73, -0.33 53.72 M97.79 139.01 C77.83 121.66, 57.87 104.31, -0.33 53.72 M109.83 138.88 C71.29 105.38, 32.75 71.88, -0.36 43.09 M109.83 138.88 C80.54 113.41, 51.24 87.95, -0.36 43.09 M121.87 138.74 C84.95 106.66, 48.04 74.57, 0.36 33.12 M121.87 138.74 C93.02 113.67, 64.17 88.59, 0.36 33.12 M133.91 138.61 C106.48 114.77, 79.05 90.92, 0.33 22.49 M133.91 138.61 C88.71 99.32, 43.51 60.02, 0.33 22.49 M139.16 132.57 C84.61 85.15, 30.06 37.73, 0.29 11.86 M139.16 132.57 C110.33 107.52, 81.51 82.46, 0.29 11.86 M139.12 121.94 C92.01 80.99, 44.9 40.04, 0.26 1.23 M139.12 121.94 C91.06 80.17, 43 38.39, 0.26 1.23 M139.09 111.31 C99.52 76.91, 59.95 42.52, 10.79 -0.22 M139.09 111.31 C92.76 71.04, 46.43 30.76, 10.79 -0.22 M139.05 100.68 C114.5 79.34, 89.95 57.99, 22.83 -0.35 M139.05 100.68 C114.69 79.51, 90.33 58.33, 22.83 -0.35 M139.77 90.71 C112.29 66.82, 84.81 42.93, 34.87 -0.48 M139.77 90.71 C114.37 68.63, 88.97 46.55, 34.87 -0.48 M139.74 80.08 C118.16 61.32, 96.59 42.57, 47.67 0.04 M139.74 80.08 C117.04 60.35, 94.35 40.62, 47.67 0.04 M139.71 69.45 C114.27 47.34, 88.83 25.23, 59.71 -0.09 M139.71 69.45 C116.38 49.17, 93.05 28.89, 59.71 -0.09 M139.67 58.82 C114.23 36.71, 88.79 14.59, 71.75 -0.23 M139.67 58.82 C114.46 36.91, 89.25 14.99, 71.75 -0.23 M139.64 48.19 C117.63 29.06, 95.63 9.93, 83.79 -0.36 M139.64 48.19 C125.82 36.18, 112.01 24.17, 83.79 -0.36 M139.6 37.56 C124.24 24.2, 108.87 10.85, 95.83 -0.49 M139.6 37.56 C126.7 26.34, 113.79 15.12, 95.83 -0.49 M139.57 26.93 C131.5 19.91, 123.42 12.9, 108.62 0.03 M139.57 26.93 C128.92 17.67, 118.27 8.42, 108.62 0.03 M139.53 16.3 C135.08 12.43, 130.62 8.55, 120.67 -0.1 M139.53 16.3 C133.39 10.96, 127.24 5.62, 120.67 -0.1 M139.5 5.67 C137.17 3.65, 134.85 1.63, 132.71 -0.24 M139.5 5.67 C137.37 3.82, 135.24 1.97, 132.71 -0.24" stroke="#4c6ef588" stroke-width="1" fill="none"></path><path d="M0 0 C45.21 0, 90.43 0, 138.81 0 M0 0 C33.29 0, 66.58 0, 138.81 0 M138.81 0 C138.81 46.8, 138.81 93.6, 138.81 138.81 M138.81 0 C138.81 34.17, 138.81 68.33, 138.81 138.81 M138.81 138.81 C110.74 138.81, 82.67 138.81, 0 138.81 M138.81 138.81 C107.61 138.81, 76.41 138.81, 0 138.81 M0 138.81 C0 107.32, 0 75.83, 0 0 M0 138.81 C0 101.93, 0 65.05, 0 0" stroke="#000000" stroke-width="2" fill="none"></path></g><g stroke-linecap="round"><g transform="translate(5518.710959730335 1257.9734838186687) rotate(0 27.432713997557585 35.656193524957416)"><path d="M0 0 C0 10.08, -0.16 48.58, 0 60.48 C0.16 72.38, -0.3 68.93, 0.96 71.42 C2.22 73.91, 4.81 74.24, 7.56 75.44 C10.31 76.64, 14.04 77.95, 17.44 78.61 C20.85 79.28, 24.72 79.43, 27.98 79.44 C31.24 79.44, 34.07 79.09, 36.98 78.62 C39.88 78.14, 42.61 77.87, 45.42 76.59 C48.23 75.32, 52.34 73.67, 53.83 70.99 C55.33 68.3, 54.24 70.94, 54.41 60.48 C54.58 50.02, 54.9 18.36, 54.87 8.24 C54.83 -1.89, 55.42 1.91, 54.17 -0.26 C52.92 -2.44, 49.77 -3.61, 47.35 -4.8 C44.94 -5.98, 42.63 -6.81, 39.7 -7.37 C36.77 -7.92, 32.46 -8, 29.75 -8.12 C27.04 -8.24, 26.73 -8.38, 23.43 -8.1 C20.14 -7.82, 13.89 -7.82, 9.99 -6.47 C6.08 -5.12, 1.66 -1.08, 0 0 M0 0 C0 10.08, -0.16 48.58, 0 60.48 C0.16 72.38, -0.3 68.93, 0.96 71.42 C2.22 73.91, 4.81 74.24, 7.56 75.44 C10.31 76.64, 14.04 77.95, 17.44 78.61 C20.85 79.28, 24.72 79.43, 27.98 79.44 C31.24 79.44, 34.07 79.09, 36.98 78.62 C39.88 78.14, 42.61 77.87, 45.42 76.59 C48.23 75.32, 52.34 73.67, 53.83 70.99 C55.33 68.3, 54.24 70.94, 54.41 60.48 C54.58 50.02, 54.9 18.36, 54.87 8.24 C54.83 -1.89, 55.42 1.91, 54.17 -0.26 C52.92 -2.44, 49.77 -3.61, 47.35 -4.8 C44.94 -5.98, 42.63 -6.81, 39.7 -7.37 C36.77 -7.92, 32.46 -8, 29.75 -8.12 C27.04 -8.24, 26.73 -8.38, 23.43 -8.1 C20.14 -7.82, 13.89 -7.82, 9.99 -6.47 C6.08 -5.12, 1.66 -1.08, 0 0" stroke="#000000" stroke-width="2" fill="none"></path></g></g><mask></mask><g stroke-linecap="round" transform="translate(5518.508951931151 1249.559559644773) rotate(0 27.38414323138204 7.445608309037198)"><path d="M54.77 7.45 C54.77 7.88, 54.63 8.31, 54.35 8.74 C54.08 9.16, 53.66 9.59, 53.12 9.99 C52.57 10.4, 51.89 10.8, 51.1 11.17 C50.31 11.54, 49.38 11.9, 48.36 12.23 C47.34 12.56, 46.2 12.87, 44.99 13.15 C43.77 13.43, 42.45 13.68, 41.08 13.89 C39.7 14.11, 38.24 14.29, 36.75 14.44 C35.26 14.59, 33.7 14.7, 32.14 14.78 C30.58 14.85, 28.97 14.89, 27.38 14.89 C25.8 14.89, 24.19 14.85, 22.63 14.78 C21.07 14.7, 19.51 14.59, 18.02 14.44 C16.53 14.29, 15.06 14.11, 13.69 13.89 C12.32 13.68, 11 13.43, 9.78 13.15 C8.57 12.87, 7.43 12.56, 6.41 12.23 C5.39 11.9, 4.46 11.54, 3.67 11.17 C2.88 10.8, 2.19 10.4, 1.65 9.99 C1.11 9.59, 0.69 9.16, 0.42 8.74 C0.14 8.31, 0 7.88, 0 7.45 C0 7.01, 0.14 6.58, 0.42 6.15 C0.69 5.73, 1.11 5.3, 1.65 4.9 C2.19 4.49, 2.88 4.1, 3.67 3.72 C4.46 3.35, 5.39 2.99, 6.41 2.66 C7.43 2.33, 8.57 2.02, 9.78 1.74 C11 1.46, 12.32 1.21, 13.69 1 C15.06 0.78, 16.53 0.6, 18.02 0.45 C19.51 0.3, 21.07 0.19, 22.63 0.11 C24.19 0.04, 25.8 0, 27.38 0 C28.97 0, 30.58 0.04, 32.14 0.11 C33.7 0.19, 35.26 0.3, 36.75 0.45 C38.24 0.6, 39.7 0.78, 41.08 1 C42.45 1.21, 43.77 1.46, 44.99 1.74 C46.2 2.02, 47.34 2.33, 48.36 2.66 C49.38 2.99, 50.31 3.35, 51.1 3.72 C51.89 4.1, 52.57 4.49, 53.12 4.9 C53.66 5.3, 54.08 5.73, 54.35 6.15 C54.63 6.58, 54.7 7.23, 54.77 7.45 C54.84 7.66, 54.84 7.23, 54.77 7.45" stroke="none" stroke-width="0" fill="#ffffff"></path><path d="M54.77 7.45 C54.77 7.88, 54.63 8.31, 54.35 8.74 C54.08 9.16, 53.66 9.59, 53.12 9.99 C52.57 10.4, 51.89 10.8, 51.1 11.17 C50.31 11.54, 49.38 11.9, 48.36 12.23 C47.34 12.56, 46.2 12.87, 44.99 13.15 C43.77 13.43, 42.45 13.68, 41.08 13.89 C39.7 14.11, 38.24 14.29, 36.75 14.44 C35.26 14.59, 33.7 14.7, 32.14 14.78 C30.58 14.85, 28.97 14.89, 27.38 14.89 C25.8 14.89, 24.19 14.85, 22.63 14.78 C21.07 14.7, 19.51 14.59, 18.02 14.44 C16.53 14.29, 15.06 14.11, 13.69 13.89 C12.32 13.68, 11 13.43, 9.78 13.15 C8.57 12.87, 7.43 12.56, 6.41 12.23 C5.39 11.9, 4.46 11.54, 3.67 11.17 C2.88 10.8, 2.19 10.4, 1.65 9.99 C1.11 9.59, 0.69 9.16, 0.42 8.74 C0.14 8.31, 0 7.88, 0 7.45 C0 7.01, 0.14 6.58, 0.42 6.15 C0.69 5.73, 1.11 5.3, 1.65 4.9 C2.19 4.49, 2.88 4.1, 3.67 3.72 C4.46 3.35, 5.39 2.99, 6.41 2.66 C7.43 2.33, 8.57 2.02, 9.78 1.74 C11 1.46, 12.32 1.21, 13.69 1 C15.06 0.78, 16.53 0.6, 18.02 0.45 C19.51 0.3, 21.07 0.19, 22.63 0.11 C24.19 0.04, 25.8 0, 27.38 0 C28.97 0, 30.58 0.04, 32.14 0.11 C33.7 0.19, 35.26 0.3, 36.75 0.45 C38.24 0.6, 39.7 0.78, 41.08 1 C42.45 1.21, 43.77 1.46, 44.99 1.74 C46.2 2.02, 47.34 2.33, 48.36 2.66 C49.38 2.99, 50.31 3.35, 51.1 3.72 C51.89 4.1, 52.57 4.49, 53.12 4.9 C53.66 5.3, 54.08 5.73, 54.35 6.15 C54.63 6.58, 54.7 7.23, 54.77 7.45 C54.84 7.66, 54.84 7.23, 54.77 7.45" stroke="#000000" stroke-width="2" fill="none"></path></g><g stroke-linecap="round"><g transform="translate(5519.456855920056 1279.5883436294225) rotate(0 26.925772000829966 2.734650673774013)"><path d="M0 0 C0.27 0.29, 0.7 1.16, 1.62 1.75 C2.54 2.34, 4.1 3.08, 5.53 3.56 C6.97 4.05, 7.91 4.24, 10.23 4.66 C12.54 5.08, 16.42 5.85, 19.43 6.1 C22.43 6.36, 25.48 6.26, 28.26 6.19 C31.04 6.13, 33.66 5.93, 36.09 5.7 C38.53 5.46, 40.67 5.23, 42.87 4.8 C45.06 4.36, 47.64 3.7, 49.25 3.11 C50.87 2.51, 51.78 1.86, 52.55 1.22 C53.31 0.58, 53.63 -0.4, 53.85 -0.72 M0 0 C0.27 0.29, 0.7 1.16, 1.62 1.75 C2.54 2.34, 4.1 3.08, 5.53 3.56 C6.97 4.05, 7.91 4.24, 10.23 4.66 C12.54 5.08, 16.42 5.85, 19.43 6.1 C22.43 6.36, 25.48 6.26, 28.26 6.19 C31.04 6.13, 33.66 5.93, 36.09 5.7 C38.53 5.46, 40.67 5.23, 42.87 4.8 C45.06 4.36, 47.64 3.7, 49.25 3.11 C50.87 2.51, 51.78 1.86, 52.55 1.22 C53.31 0.58, 53.63 -0.4, 53.85 -0.72" stroke="#000000" stroke-width="2" fill="none"></path></g></g><mask></mask><g stroke-linecap="round"><g transform="translate(5517.934058550731 1305.045077226221) rotate(0 26.925772000829966 2.734650673774013)"><path d="M0 0 C0.27 0.29, 0.7 1.16, 1.62 1.75 C2.54 2.34, 4.1 3.08, 5.53 3.56 C6.97 4.05, 7.91 4.24, 10.23 4.66 C12.54 5.08, 16.42 5.85, 19.43 6.1 C22.43 6.36, 25.48 6.26, 28.26 6.19 C31.04 6.13, 33.66 5.93, 36.09 5.7 C38.53 5.46, 40.67 5.23, 42.87 4.8 C45.06 4.36, 47.64 3.7, 49.25 3.11 C50.87 2.51, 51.78 1.86, 52.55 1.22 C53.31 0.58, 53.63 -0.4, 53.85 -0.72 M0 0 C0.27 0.29, 0.7 1.16, 1.62 1.75 C2.54 2.34, 4.1 3.08, 5.53 3.56 C6.97 4.05, 7.91 4.24, 10.23 4.66 C12.54 5.08, 16.42 5.85, 19.43 6.1 C22.43 6.36, 25.48 6.26, 28.26 6.19 C31.04 6.13, 33.66 5.93, 36.09 5.7 C38.53 5.46, 40.67 5.23, 42.87 4.8 C45.06 4.36, 47.64 3.7, 49.25 3.11 C50.87 2.51, 51.78 1.86, 52.55 1.22 C53.31 0.58, 53.63 -0.4, 53.85 -0.72" stroke="#000000" stroke-width="2" fill="none"></path></g></g><mask></mask><g stroke-linecap="round" transform="translate(5568.890896455268 1279.673480508338) rotate(0 15.744699285984098 19.68087410748194)"><path d="M20 5 C22.76 8.69, 25.53 12.38, 27.49 15 M20 5 C21.6 7.13, 23.19 9.27, 27.49 15 M27.49 15 C31.49 20, 31.49 20, 27.49 25 M27.49 15 C31.49 20, 31.49 20, 27.49 25 M27.49 25 C25.7 27.24, 23.91 29.48, 20 34.36 M27.49 25 C25.07 28.03, 22.64 31.06, 20 34.36 M20 34.36 C16 39.36, 16 39.36, 12 34.36 M20 34.36 C16 39.36, 16 39.36, 12 34.36 M12 34.36 C9.38 31.29, 6.76 28.23, 4 25 M12 34.36 C8.97 30.82, 5.94 27.28, 4 25 M4 25 C0 20, 0 20, 4 15 M4 25 C0 20, 0 20, 4 15 M4 15 C5.88 12.64, 7.77 10.29, 12 5 M4 15 C6.93 11.34, 9.85 7.69, 12 5 M12 5 C16 0, 16 0, 20 5 M12 5 C16 0, 16 0, 20 5" stroke="#000000" stroke-width="2" fill="none"></path></g><g stroke-linecap="round"><g transform="translate(5577.924526434796 1233.9721460391283) rotate(0 0 5.904262232244946)"><path d="M0 0 C0 1.97, 0 9.84, 0 11.81 M0 0 C0 1.97, 0 9.84, 0 11.81" stroke="#000000" stroke-width="2" fill="none"></path></g></g><mask></mask><g stroke-linecap="round"><g transform="translate(5577.924526434796 1233.7992588089346) rotate(89.99999999999939 0 5.904262232244946)"><path d="M0 0 C0 1.97, 0 9.84, 0 11.81 M0 0 C0 1.97, 0 9.84, 0 11.81" stroke="#000000" stroke-width="2" fill="none"></path></g></g><mask></mask><g stroke-linecap="round"><g transform="translate(5599.976891490132 1257.5891949681009) rotate(0 0 5.904262232244946)"><path d="M0 0 C0 1.97, 0 9.84, 0 11.81 M0 0 C0 1.97, 0 9.84, 0 11.81" stroke="#000000" stroke-width="2" fill="none"></path></g></g><mask></mask><g stroke-linecap="round"><g transform="translate(5599.976891490132 1257.4163077379108) rotate(89.99999999999939 0 5.904262232244946)"><path d="M0 0 C0 1.97, 0 9.84, 0 11.81 M0 0 C0 1.97, 0 9.84, 0 11.81" stroke="#000000" stroke-width="2" fill="none"></path></g></g><mask></mask><g stroke-linecap="round"><g transform="translate(5050.09534511821 1307.8927972261426) rotate(0 208.26312312911978 -1.6428471328636078)"><path d="M0 0 C69.42 -0.55, 347.11 -2.74, 416.53 -3.29 M0 0 C69.42 -0.55, 347.11 -2.74, 416.53 -3.29" stroke="#1e1e1e" stroke-width="4" fill="none"></path></g><g transform="translate(5050.09534511821 1307.8927972261426) rotate(0 208.26312312911978 -1.6428471328636078)"><path d="M393.1 5.45 C400.77 2.59, 408.43 -0.27, 416.53 -3.29 M393.1 5.45 C400.87 2.55, 408.65 -0.35, 416.53 -3.29" stroke="#1e1e1e" stroke-width="4" fill="none"></path></g><g transform="translate(5050.09534511821 1307.8927972261426) rotate(0 208.26312312911978 -1.6428471328636078)"><path d="M392.97 -11.65 C400.68 -8.91, 408.39 -6.18, 416.53 -3.29 M392.97 -11.65 C400.78 -8.88, 408.6 -6.1, 416.53 -3.29" stroke="#1e1e1e" stroke-width="4" fill="none"></path></g></g><mask></mask><g stroke-linecap="round"><g transform="translate(5037.225152118204 1761.9622983214085) rotate(0 213.0263803466787 -201.43811605282644)"><path d="M0 0 C71.01 -67.15, 355.04 -335.73, 426.05 -402.88 M0 0 C71.01 -67.15, 355.04 -335.73, 426.05 -402.88" stroke="#1e1e1e" stroke-width="4" fill="none"></path></g><g transform="translate(5037.225152118204 1761.9622983214085) rotate(0 213.0263803466787 -201.43811605282644)"><path d="M426.05 -402.88 L420.53 -388.93 L411.82 -398.14 L426.05 -402.88" stroke="none" stroke-width="0" fill="#1e1e1e" fill-rule="evenodd"></path><path d="M426.05 -402.88 C424.44 -398.8, 422.83 -394.73, 420.53 -388.93 M426.05 -402.88 C424.47 -398.88, 422.89 -394.88, 420.53 -388.93 M420.53 -388.93 C417.31 -392.33, 414.1 -395.73, 411.82 -398.14 M420.53 -388.93 C417.07 -392.59, 413.61 -396.25, 411.82 -398.14 M411.82 -398.14 C415.5 -399.37, 419.18 -400.59, 426.05 -402.88 M411.82 -398.14 C415.05 -399.22, 418.27 -400.29, 426.05 -402.88 M426.05 -402.88 C426.05 -402.88, 426.05 -402.88, 426.05 -402.88 M426.05 -402.88 C426.05 -402.88, 426.05 -402.88, 426.05 -402.88" stroke="#1e1e1e" stroke-width="4" fill="none"></path></g></g><mask></mask><g stroke-linecap="round" transform="translate(5604.913405951331 431.3371676023071) rotate(0 100.62150885983101 100.62150885983101)"><path d="M201.24 100.62 C201.24 103.72, 201.1 106.82, 200.81 109.91 C200.53 112.99, 200.1 116.07, 199.53 119.11 C198.96 122.15, 198.25 125.18, 197.4 128.16 C196.55 131.13, 195.57 134.08, 194.45 136.97 C193.33 139.86, 192.07 142.7, 190.69 145.47 C189.31 148.24, 187.8 150.96, 186.17 153.59 C184.54 156.22, 182.78 158.79, 180.92 161.26 C179.05 163.73, 177.07 166.12, 174.98 168.41 C172.9 170.7, 170.7 172.9, 168.41 174.98 C166.12 177.07, 163.73 179.05, 161.26 180.92 C158.79 182.78, 156.22 184.54, 153.59 186.17 C150.96 187.8, 148.24 189.31, 145.47 190.69 C142.7 192.07, 139.86 193.33, 136.97 194.45 C134.08 195.57, 131.13 196.55, 128.16 197.4 C125.18 198.25, 122.15 198.96, 119.11 199.53 C116.07 200.1, 112.99 200.53, 109.91 200.81 C106.82 201.1, 103.72 201.24, 100.62 201.24 C97.53 201.24, 94.42 201.1, 91.34 200.81 C88.26 200.53, 85.17 200.1, 82.13 199.53 C79.09 198.96, 76.06 198.25, 73.09 197.4 C70.11 196.55, 67.16 195.57, 64.27 194.45 C61.39 193.33, 58.54 192.07, 55.77 190.69 C53 189.31, 50.28 187.8, 47.65 186.17 C45.02 184.54, 42.45 182.78, 39.98 180.92 C37.51 179.05, 35.12 177.07, 32.83 174.98 C30.55 172.9, 28.35 170.7, 26.26 168.41 C24.18 166.12, 22.19 163.73, 20.32 161.26 C18.46 158.79, 16.7 156.22, 15.07 153.59 C13.44 150.96, 11.93 148.24, 10.55 145.47 C9.17 142.7, 7.91 139.86, 6.79 136.97 C5.68 134.08, 4.69 131.13, 3.84 128.16 C2.99 125.18, 2.28 122.15, 1.71 119.11 C1.14 116.07, 0.71 112.99, 0.43 109.91 C0.14 106.82, 0 103.72, 0 100.62 C0 97.53, 0.14 94.42, 0.43 91.34 C0.71 88.26, 1.14 85.17, 1.71 82.13 C2.28 79.09, 2.99 76.06, 3.84 73.09 C4.69 70.11, 5.68 67.16, 6.79 64.27 C7.91 61.39, 9.17 58.54, 10.55 55.77 C11.93 53, 13.44 50.28, 15.07 47.65 C16.7 45.02, 18.46 42.45, 20.32 39.98 C22.19 37.51, 24.18 35.12, 26.26 32.83 C28.35 30.55, 30.55 28.35, 32.83 26.26 C35.12 24.18, 37.51 22.19, 39.98 20.32 C42.45 18.46, 45.02 16.7, 47.65 15.07 C50.28 13.44, 53 11.93, 55.77 10.55 C58.54 9.17, 61.39 7.91, 64.27 6.79 C67.16 5.68, 70.11 4.69, 73.09 3.84 C76.06 2.99, 79.09 2.28, 82.13 1.71 C85.17 1.14, 88.26 0.71, 91.34 0.43 C94.42 0.14, 97.53 0, 100.62 0 C103.72 0, 106.82 0.14, 109.91 0.43 C112.99 0.71, 116.07 1.14, 119.11 1.71 C122.15 2.28, 125.18 2.99, 128.16 3.84 C131.13 4.69, 134.08 5.68, 136.97 6.79 C139.86 7.91, 142.7 9.17, 145.47 10.55 C148.24 11.93, 150.96 13.44, 153.59 15.07 C156.22 16.7, 158.79 18.46, 161.26 20.32 C163.73 22.19, 166.12 24.18, 168.41 26.26 C170.7 28.35, 172.9 30.55, 174.98 32.83 C177.07 35.12, 179.05 37.51, 180.92 39.98 C182.78 42.45, 184.54 45.02, 186.17 47.65 C187.8 50.28, 189.31 53, 190.69 55.77 C192.07 58.54, 193.33 61.39, 194.45 64.27 C195.57 67.16, 196.55 70.11, 197.4 73.09 C198.25 76.06, 198.96 79.09, 199.53 82.13 C200.1 85.17, 200.53 88.26, 200.81 91.34 C201.1 94.42, 201.17 99.07, 201.24 100.62 C201.31 102.17, 201.31 99.07, 201.24 100.62" stroke="#1e1e1e" stroke-width="4" fill="none"></path></g><g transform="translate(5682.184762800214 509.30852521413) rotate(0 23.200000762939453 22.5)"><text x="23.200000762939453" y="31.536" font-family="Virgil, Segoe UI Emoji" font-size="36px" fill="#1e1e1e" text-anchor="middle" style="white-space: pre;" direction="ltr" dominant-baseline="alphabetic">S3</text></g><g stroke-linecap="round" transform="translate(5860.774579951332 431.3371676023071) rotate(0 100.62150885983101 100.62150885983101)"><path d="M201.24 100.62 C201.24 103.72, 201.1 106.82, 200.81 109.91 C200.53 112.99, 200.1 116.07, 199.53 119.11 C198.96 122.15, 198.25 125.18, 197.4 128.16 C196.55 131.13, 195.57 134.08, 194.45 136.97 C193.33 139.86, 192.07 142.7, 190.69 145.47 C189.31 148.24, 187.8 150.96, 186.17 153.59 C184.54 156.22, 182.78 158.79, 180.92 161.26 C179.05 163.73, 177.07 166.12, 174.98 168.41 C172.9 170.7, 170.7 172.9, 168.41 174.98 C166.12 177.07, 163.73 179.05, 161.26 180.92 C158.79 182.78, 156.22 184.54, 153.59 186.17 C150.96 187.8, 148.24 189.31, 145.47 190.69 C142.7 192.07, 139.86 193.33, 136.97 194.45 C134.08 195.57, 131.13 196.55, 128.16 197.4 C125.18 198.25, 122.15 198.96, 119.11 199.53 C116.07 200.1, 112.99 200.53, 109.91 200.81 C106.82 201.1, 103.72 201.24, 100.62 201.24 C97.53 201.24, 94.42 201.1, 91.34 200.81 C88.26 200.53, 85.17 200.1, 82.13 199.53 C79.09 198.96, 76.06 198.25, 73.09 197.4 C70.11 196.55, 67.16 195.57, 64.27 194.45 C61.39 193.33, 58.54 192.07, 55.77 190.69 C53 189.31, 50.28 187.8, 47.65 186.17 C45.02 184.54, 42.45 182.78, 39.98 180.92 C37.51 179.05, 35.12 177.07, 32.83 174.98 C30.55 172.9, 28.35 170.7, 26.26 168.41 C24.18 166.12, 22.19 163.73, 20.32 161.26 C18.46 158.79, 16.7 156.22, 15.07 153.59 C13.44 150.96, 11.93 148.24, 10.55 145.47 C9.17 142.7, 7.91 139.86, 6.79 136.97 C5.68 134.08, 4.69 131.13, 3.84 128.16 C2.99 125.18, 2.28 122.15, 1.71 119.11 C1.14 116.07, 0.71 112.99, 0.43 109.91 C0.14 106.82, 0 103.72, 0 100.62 C0 97.53, 0.14 94.42, 0.43 91.34 C0.71 88.26, 1.14 85.17, 1.71 82.13 C2.28 79.09, 2.99 76.06, 3.84 73.09 C4.69 70.11, 5.68 67.16, 6.79 64.27 C7.91 61.39, 9.17 58.54, 10.55 55.77 C11.93 53, 13.44 50.28, 15.07 47.65 C16.7 45.02, 18.46 42.45, 20.32 39.98 C22.19 37.51, 24.18 35.12, 26.26 32.83 C28.35 30.55, 30.55 28.35, 32.83 26.26 C35.12 24.18, 37.51 22.19, 39.98 20.32 C42.45 18.46, 45.02 16.7, 47.65 15.07 C50.28 13.44, 53 11.93, 55.77 10.55 C58.54 9.17, 61.39 7.91, 64.27 6.79 C67.16 5.68, 70.11 4.69, 73.09 3.84 C76.06 2.99, 79.09 2.28, 82.13 1.71 C85.17 1.14, 88.26 0.71, 91.34 0.43 C94.42 0.14, 97.53 0, 100.62 0 C103.72 0, 106.82 0.14, 109.91 0.43 C112.99 0.71, 116.07 1.14, 119.11 1.71 C122.15 2.28, 125.18 2.99, 128.16 3.84 C131.13 4.69, 134.08 5.68, 136.97 6.79 C139.86 7.91, 142.7 9.17, 145.47 10.55 C148.24 11.93, 150.96 13.44, 153.59 15.07 C156.22 16.7, 158.79 18.46, 161.26 20.32 C163.73 22.19, 166.12 24.18, 168.41 26.26 C170.7 28.35, 172.9 30.55, 174.98 32.83 C177.07 35.12, 179.05 37.51, 180.92 39.98 C182.78 42.45, 184.54 45.02, 186.17 47.65 C187.8 50.28, 189.31 53, 190.69 55.77 C192.07 58.54, 193.33 61.39, 194.45 64.27 C195.57 67.16, 196.55 70.11, 197.4 73.09 C198.25 76.06, 198.96 79.09, 199.53 82.13 C200.1 85.17, 200.53 88.26, 200.81 91.34 C201.1 94.42, 201.17 99.07, 201.24 100.62 C201.31 102.17, 201.31 99.07, 201.24 100.62" stroke="#1e1e1e" stroke-width="4" fill="none"></path></g><g transform="translate(5914.729271150802 509.30852521413) rotate(0 46.516666412353516 22.5)"><text x="46.516666412353516" y="31.536" font-family="Virgil, Segoe UI Emoji" font-size="36px" fill="#1e1e1e" text-anchor="middle" style="white-space: pre;" direction="ltr" dominant-baseline="alphabetic">Local</text></g><g stroke-linecap="round" transform="translate(6116.635753951334 431.3371676023071) rotate(0 100.62150885983101 100.62150885983101)"><path d="M201.24 100.62 C201.24 103.72, 201.1 106.82, 200.81 109.91 C200.53 112.99, 200.1 116.07, 199.53 119.11 C198.96 122.15, 198.25 125.18, 197.4 128.16 C196.55 131.13, 195.57 134.08, 194.45 136.97 C193.33 139.86, 192.07 142.7, 190.69 145.47 C189.31 148.24, 187.8 150.96, 186.17 153.59 C184.54 156.22, 182.78 158.79, 180.92 161.26 C179.05 163.73, 177.07 166.12, 174.98 168.41 C172.9 170.7, 170.7 172.9, 168.41 174.98 C166.12 177.07, 163.73 179.05, 161.26 180.92 C158.79 182.78, 156.22 184.54, 153.59 186.17 C150.96 187.8, 148.24 189.31, 145.47 190.69 C142.7 192.07, 139.86 193.33, 136.97 194.45 C134.08 195.57, 131.13 196.55, 128.16 197.4 C125.18 198.25, 122.15 198.96, 119.11 199.53 C116.07 200.1, 112.99 200.53, 109.91 200.81 C106.82 201.1, 103.72 201.24, 100.62 201.24 C97.53 201.24, 94.42 201.1, 91.34 200.81 C88.26 200.53, 85.17 200.1, 82.13 199.53 C79.09 198.96, 76.06 198.25, 73.09 197.4 C70.11 196.55, 67.16 195.57, 64.27 194.45 C61.39 193.33, 58.54 192.07, 55.77 190.69 C53 189.31, 50.28 187.8, 47.65 186.17 C45.02 184.54, 42.45 182.78, 39.98 180.92 C37.51 179.05, 35.12 177.07, 32.83 174.98 C30.55 172.9, 28.35 170.7, 26.26 168.41 C24.18 166.12, 22.19 163.73, 20.32 161.26 C18.46 158.79, 16.7 156.22, 15.07 153.59 C13.44 150.96, 11.93 148.24, 10.55 145.47 C9.17 142.7, 7.91 139.86, 6.79 136.97 C5.68 134.08, 4.69 131.13, 3.84 128.16 C2.99 125.18, 2.28 122.15, 1.71 119.11 C1.14 116.07, 0.71 112.99, 0.43 109.91 C0.14 106.82, 0 103.72, 0 100.62 C0 97.53, 0.14 94.42, 0.43 91.34 C0.71 88.26, 1.14 85.17, 1.71 82.13 C2.28 79.09, 2.99 76.06, 3.84 73.09 C4.69 70.11, 5.68 67.16, 6.79 64.27 C7.91 61.39, 9.17 58.54, 10.55 55.77 C11.93 53, 13.44 50.28, 15.07 47.65 C16.7 45.02, 18.46 42.45, 20.32 39.98 C22.19 37.51, 24.18 35.12, 26.26 32.83 C28.35 30.55, 30.55 28.35, 32.83 26.26 C35.12 24.18, 37.51 22.19, 39.98 20.32 C42.45 18.46, 45.02 16.7, 47.65 15.07 C50.28 13.44, 53 11.93, 55.77 10.55 C58.54 9.17, 61.39 7.91, 64.27 6.79 C67.16 5.68, 70.11 4.69, 73.09 3.84 C76.06 2.99, 79.09 2.28, 82.13 1.71 C85.17 1.14, 88.26 0.71, 91.34 0.43 C94.42 0.14, 97.53 0, 100.62 0 C103.72 0, 106.82 0.14, 109.91 0.43 C112.99 0.71, 116.07 1.14, 119.11 1.71 C122.15 2.28, 125.18 2.99, 128.16 3.84 C131.13 4.69, 134.08 5.68, 136.97 6.79 C139.86 7.91, 142.7 9.17, 145.47 10.55 C148.24 11.93, 150.96 13.44, 153.59 15.07 C156.22 16.7, 158.79 18.46, 161.26 20.32 C163.73 22.19, 166.12 24.18, 168.41 26.26 C170.7 28.35, 172.9 30.55, 174.98 32.83 C177.07 35.12, 179.05 37.51, 180.92 39.98 C182.78 42.45, 184.54 45.02, 186.17 47.65 C187.8 50.28, 189.31 53, 190.69 55.77 C192.07 58.54, 193.33 61.39, 194.45 64.27 C195.57 67.16, 196.55 70.11, 197.4 73.09 C198.25 76.06, 198.96 79.09, 199.53 82.13 C200.1 85.17, 200.53 88.26, 200.81 91.34 C201.1 94.42, 201.17 99.07, 201.24 100.62 C201.31 102.17, 201.31 99.07, 201.24 100.62" stroke="#1e1e1e" stroke-width="4" fill="none"></path></g><g transform="translate(6172.12377797551 509.30852521413) rotate(0 44.983333587646484 22.5)"><text x="44.983333587646484" y="31.536" font-family="Virgil, Segoe UI Emoji" font-size="36px" fill="#1e1e1e" text-anchor="middle" style="white-space: pre;" direction="ltr" dominant-baseline="alphabetic">Drive</text></g><g stroke-linecap="round"><g transform="translate(5052.435380207993 956.2764258227526) rotate(0 203.5830528094266 141.5721229306946)"><path d="M0 0 C67.86 47.19, 339.31 235.95, 407.17 283.14 M0 0 C67.86 47.19, 339.31 235.95, 407.17 283.14" stroke="#1e1e1e" stroke-width="4" fill="none"></path></g><g transform="translate(5052.435380207993 956.2764258227526) rotate(0 203.5830528094266 141.5721229306946)"><path d="M407.17 283.14 L392.39 280.59 L399.62 270.18 L407.17 283.14" stroke="none" stroke-width="0" fill="#1e1e1e" fill-rule="evenodd"></path><path d="M407.17 283.14 C403.41 282.49, 399.66 281.85, 392.39 280.59 M407.17 283.14 C401.79 282.21, 396.41 281.28, 392.39 280.59 M392.39 280.59 C395.01 276.82, 397.63 273.04, 399.62 270.18 M392.39 280.59 C394.27 277.87, 396.16 275.16, 399.62 270.18 M399.62 270.18 C401.79 273.9, 403.95 277.62, 407.17 283.14 M399.62 270.18 C401.7 273.75, 403.78 277.31, 407.17 283.14 M407.17 283.14 C407.17 283.14, 407.17 283.14, 407.17 283.14 M407.17 283.14 C407.17 283.14, 407.17 283.14, 407.17 283.14" stroke="#1e1e1e" stroke-width="4" fill="none"></path></g></g><mask></mask><g stroke-linecap="round" transform="translate(6369.87513567874 900.5697837427306) rotate(0 84.24126323148812 338.85088800000085)"><path d="M32 0 C61.04 0, 90.09 0, 136.48 0 M32 0 C64.31 0, 96.63 0, 136.48 0 M136.48 0 C157.82 0, 168.48 10.67, 168.48 32 M136.48 0 C157.82 0, 168.48 10.67, 168.48 32 M168.48 32 C168.48 235.38, 168.48 438.76, 168.48 645.7 M168.48 32 C168.48 177.93, 168.48 323.87, 168.48 645.7 M168.48 645.7 C168.48 667.04, 157.82 677.7, 136.48 677.7 M168.48 645.7 C168.48 667.04, 157.82 677.7, 136.48 677.7 M136.48 677.7 C98.28 677.7, 60.07 677.7, 32 677.7 M136.48 677.7 C112.2 677.7, 87.91 677.7, 32 677.7 M32 677.7 C10.67 677.7, 0 667.04, 0 645.7 M32 677.7 C10.67 677.7, 0 667.04, 0 645.7 M0 645.7 C0 517.28, 0 388.86, 0 32 M0 645.7 C0 477.63, 0 309.55, 0 32 M0 32 C0 10.67, 10.67 0, 32 0 M0 32 C0 10.67, 10.67 0, 32 0" stroke="#1e1e1e" stroke-width="4" fill="none"></path></g><g transform="translate(6442.316398281891 1113.6617203361402) rotate(0 11.800000190734863 112.5)"><text x="0" y="31.536" font-family="Virgil, Segoe UI Emoji" font-size="36px" fill="#1e1e1e" text-anchor="start" style="white-space: pre;" direction="ltr" dominant-baseline="alphabetic">K</text><text x="0" y="76.536" font-family="Virgil, Segoe UI Emoji" font-size="36px" fill="#1e1e1e" text-anchor="start" style="white-space: pre;" direction="ltr" dominant-baseline="alphabetic">A</text><text x="0" y="121.536" font-family="Virgil, Segoe UI Emoji" font-size="36px" fill="#1e1e1e" text-anchor="start" style="white-space: pre;" direction="ltr" dominant-baseline="alphabetic">F</text><text x="0" y="166.536" font-family="Virgil, Segoe UI Emoji" font-size="36px" fill="#1e1e1e" text-anchor="start" style="white-space: pre;" direction="ltr" dominant-baseline="alphabetic">K</text><text x="0" y="211.536" font-family="Virgil, Segoe UI Emoji" font-size="36px" fill="#1e1e1e" text-anchor="start" style="white-space: pre;" direction="ltr" dominant-baseline="alphabetic">A</text></g><g mask="url(#mask-zD_QQFjHHgTnMtT3m_Prk)" stroke-linecap="round"><g transform="translate(5656.164433366983 1275.5293304964816) rotate(0 341.645123072416 -4.367609281782279)"><path d="M0 0 C113.88 -1.46, 569.41 -7.28, 683.29 -8.74 M0 0 C113.88 -1.46, 569.41 -7.28, 683.29 -8.74" stroke="#1e1e1e" stroke-width="4" fill="none"></path></g><g transform="translate(5656.164433366983 1275.5293304964816) rotate(0 341.645123072416 -4.367609281782279)"><path d="M683.29 -8.74 L669.78 -2.22 L669.62 -14.9 L683.29 -8.74" stroke="none" stroke-width="0" fill="#1e1e1e" fill-rule="evenodd"></path><path d="M683.29 -8.74 C678.49 -6.42, 673.69 -4.11, 669.78 -2.22 M683.29 -8.74 C679.59 -6.95, 675.9 -5.17, 669.78 -2.22 M669.78 -2.22 C669.71 -7.2, 669.65 -12.18, 669.62 -14.9 M669.78 -2.22 C669.74 -5.17, 669.7 -8.11, 669.62 -14.9 M669.62 -14.9 C672.42 -13.64, 675.23 -12.37, 683.29 -8.74 M669.62 -14.9 C673.11 -13.32, 676.61 -11.75, 683.29 -8.74 M683.29 -8.74 C683.29 -8.74, 683.29 -8.74, 683.29 -8.74 M683.29 -8.74 C683.29 -8.74, 683.29 -8.74, 683.29 -8.74" stroke="#1e1e1e" stroke-width="4" fill="none"></path></g></g><mask id="mask-zD_QQFjHHgTnMtT3m_Prk"><rect x="0" y="0" fill="#fff" width="6439.454679511815" height="1384.2645490600444"></rect><rect x="5826.959550335883" y="1203.6617212146994" fill="#000" width="341.70001220703125" height="135" opacity="1"></rect></mask><g transform="translate(5826.95955033588 1203.661721214703) rotate(0 170.85000610351562 67.49999999999818)"><text x="170.85000610351562" y="31.536" font-family="Virgil, Segoe UI Emoji" font-size="36px" fill="#1e1e1e" text-anchor="middle" style="white-space: pre;" direction="ltr" dominant-baseline="alphabetic">permissions</text><text x="170.85000610351562" y="76.536" font-family="Virgil, Segoe UI Emoji" font-size="36px" fill="#1e1e1e" text-anchor="middle" style="white-space: pre;" direction="ltr" dominant-baseline="alphabetic">file changes</text><text x="170.85000610351562" y="121.536" font-family="Virgil, Segoe UI Emoji" font-size="36px" fill="#1e1e1e" text-anchor="middle" style="white-space: pre;" direction="ltr" dominant-baseline="alphabetic">new addition/delete</text></g><g stroke-linecap="round" transform="translate(5490.819291951328 1934.4110933439024) rotate(0 162.63243873856482 101.7915264047133)"><path d="M32 0 C93.98 0, 155.95 0, 293.26 0 M32 0 C125.24 0, 218.49 0, 293.26 0 M293.26 0 C314.6 0, 325.26 10.67, 325.26 32 M293.26 0 C314.6 0, 325.26 10.67, 325.26 32 M325.26 32 C325.26 61.82, 325.26 91.64, 325.26 171.58 M325.26 32 C325.26 87.38, 325.26 142.75, 325.26 171.58 M325.26 171.58 C325.26 192.92, 314.6 203.58, 293.26 203.58 M325.26 171.58 C325.26 192.92, 314.6 203.58, 293.26 203.58 M293.26 203.58 C227.26 203.58, 161.25 203.58, 32 203.58 M293.26 203.58 C217.98 203.58, 142.69 203.58, 32 203.58 M32 203.58 C10.67 203.58, 0 192.92, 0 171.58 M32 203.58 C10.67 203.58, 0 192.92, 0 171.58 M0 171.58 C0 128.2, 0 84.81, 0 32 M0 171.58 C0 138.96, 0 106.35, 0 32 M0 32 C0 10.67, 10.67 0, 32 0 M0 32 C0 10.67, 10.67 0, 32 0" stroke="#1e1e1e" stroke-width="4" fill="none"></path></g><g transform="translate(5543.081097404785 2013.702619844682) rotate(0 113.08333587646484 22.5)"><text x="0" y="31.536" font-family="Virgil, Segoe UI Emoji" font-size="36px" fill="#1e1e1e" text-anchor="start" style="white-space: pre;" direction="ltr" dominant-baseline="alphabetic">Sync Workers</text></g><g stroke-linecap="round"><g transform="translate(6366.582143570802 1582.2107135621573) rotate(0 -262.7774690562528 226.41094432078899)"><path d="M0 0 C-87.59 75.47, -437.96 377.35, -525.55 452.82 M0 0 C-87.59 75.47, -437.96 377.35, -525.55 452.82" stroke="#1e1e1e" stroke-width="4" fill="none"></path></g><g transform="translate(6366.582143570802 1582.2107135621573) rotate(0 -262.7774690562528 226.41094432078899)"><path d="M-525.55 452.82 L-519.39 439.15 L-511.12 448.75 L-525.55 452.82" stroke="none" stroke-width="0" fill="#1e1e1e" fill-rule="evenodd"></path><path d="M-525.55 452.82 C-524.07 449.53, -522.59 446.23, -519.39 439.15 M-525.55 452.82 C-523.91 449.18, -522.28 445.54, -519.39 439.15 M-519.39 439.15 C-516.14 442.92, -512.88 446.7, -511.12 448.75 M-519.39 439.15 C-517.29 441.59, -515.19 444.03, -511.12 448.75 M-511.12 448.75 C-514.84 449.8, -518.57 450.85, -525.55 452.82 M-511.12 448.75 C-514.57 449.72, -518.02 450.7, -525.55 452.82 M-525.55 452.82 C-525.55 452.82, -525.55 452.82, -525.55 452.82 M-525.55 452.82 C-525.55 452.82, -525.55 452.82, -525.55 452.82" stroke="#1e1e1e" stroke-width="4" fill="none"></path></g></g><mask></mask><g stroke-linecap="round"><g transform="translate(5466.621591096136 2053.7528829218445) rotate(0 -214.11321071336351 2.3400350897627504)"><path d="M0 0 C-71.37 0.78, -356.86 3.9, -428.23 4.68 M0 0 C-71.37 0.78, -356.86 3.9, -428.23 4.68" stroke="#1e1e1e" stroke-width="4" fill="none"></path></g><g transform="translate(5466.621591096136 2053.7528829218445) rotate(0 -214.11321071336351 2.3400350897627504)"><path d="M-428.23 4.68 L-414.7 -1.81 L-414.56 10.87 L-428.23 4.68" stroke="none" stroke-width="0" fill="#1e1e1e" fill-rule="evenodd"></path><path d="M-428.23 4.68 C-423.24 2.29, -418.26 -0.1, -414.7 -1.81 M-428.23 4.68 C-425.52 3.38, -422.82 2.08, -414.7 -1.81 M-414.7 -1.81 C-414.65 2.88, -414.6 7.57, -414.56 10.87 M-414.7 -1.81 C-414.65 2.69, -414.6 7.18, -414.56 10.87 M-414.56 10.87 C-418.84 8.93, -423.12 6.99, -428.23 4.68 M-414.56 10.87 C-419.33 8.71, -424.1 6.55, -428.23 4.68 M-428.23 4.68 C-428.23 4.68, -428.23 4.68, -428.23 4.68 M-428.23 4.68 C-428.23 4.68, -428.23 4.68, -428.23 4.68" stroke="#1e1e1e" stroke-width="4" fill="none"></path></g></g><mask></mask><g stroke-linecap="round"><g transform="translate(5585.963380674075 1915.6908126258004) rotate(0 1.8189894035458565e-12 -246.87370197005112)"><path d="M0 0 C0 -82.29, 0 -411.46, 0 -493.75 M0 0 C0 -82.29, 0 -411.46, 0 -493.75" stroke="#1e1e1e" stroke-width="4" fill="none"></path></g><g transform="translate(5585.963380674075 1915.6908126258004) rotate(0 1.8189894035458565e-12 -246.87370197005112)"><path d="M0 -493.75 L6.34 -480.15 L-6.34 -480.15 L0 -493.75" stroke="none" stroke-width="0" fill="#1e1e1e" fill-rule="evenodd"></path><path d="M0 -493.75 C2.02 -489.41, 4.05 -485.07, 6.34 -480.15 M0 -493.75 C1.29 -490.98, 2.59 -488.2, 6.34 -480.15 M6.34 -480.15 C2.4 -480.15, -1.55 -480.15, -6.34 -480.15 M6.34 -480.15 C3.04 -480.15, -0.27 -480.15, -6.34 -480.15 M-6.34 -480.15 C-4.43 -484.25, -2.52 -488.34, 0 -493.75 M-6.34 -480.15 C-4.87 -483.31, -3.39 -486.48, 0 -493.75 M0 -493.75 C0 -493.75, 0 -493.75, 0 -493.75 M0 -493.75 C0 -493.75, 0 -493.75, 0 -493.75" stroke="#1e1e1e" stroke-width="4" fill="none"></path></g></g><mask></mask><g stroke-linecap="round" transform="translate(4976.384240015843 1770.9900807427312) rotate(0 76.05114041731395 63.51711500000056)"><path d="M31.76 0 C51.41 0, 71.06 0, 120.34 0 M31.76 0 C55.63 0, 79.51 0, 120.34 0 M120.34 0 C141.52 0, 152.1 10.59, 152.1 31.76 M120.34 0 C141.52 0, 152.1 10.59, 152.1 31.76 M152.1 31.76 C152.1 49.95, 152.1 68.14, 152.1 95.28 M152.1 31.76 C152.1 51.4, 152.1 71.05, 152.1 95.28 M152.1 95.28 C152.1 116.45, 141.52 127.03, 120.34 127.03 M152.1 95.28 C152.1 116.45, 141.52 127.03, 120.34 127.03 M120.34 127.03 C101.33 127.03, 82.32 127.03, 31.76 127.03 M120.34 127.03 C85.96 127.03, 51.57 127.03, 31.76 127.03 M31.76 127.03 C10.59 127.03, 0 116.45, 0 95.28 M31.76 127.03 C10.59 127.03, 0 116.45, 0 95.28 M0 95.28 C0 82.23, 0 69.18, 0 31.76 M0 95.28 C0 74.06, 0 52.84, 0 31.76 M0 31.76 C0 10.59, 10.59 0, 31.76 0 M0 31.76 C0 10.59, 10.59 0, 31.76 0" stroke="#1e1e1e" stroke-width="4" fill="none"></path></g><g transform="translate(5001.052045272532 1811.0912787659818) rotate(0 51.38333511352539 22.5)"><text x="0" y="31.536" font-family="Virgil, Segoe UI Emoji" font-size="36px" fill="#1e1e1e" text-anchor="start" style="white-space: pre;" direction="ltr" dominant-baseline="alphabetic">Cache</text></g><g stroke-linecap="round"><g transform="translate(5583.6233455842885 1822.0894090352685) rotate(0 -212.35818428344646 2.124673113672543)"><path d="M0 0 C-70.79 0.71, -353.93 3.54, -424.72 4.25 M0 0 C-70.79 0.71, -353.93 3.54, -424.72 4.25" stroke="#1e1e1e" stroke-width="4" fill="none"></path></g><g transform="translate(5583.6233455842885 1822.0894090352685) rotate(0 -212.35818428344646 2.124673113672543)"><path d="M-424.72 4.25 L-411.19 -2.23 L-411.06 10.45 L-424.72 4.25" stroke="none" stroke-width="0" fill="#1e1e1e" fill-rule="evenodd"></path><path d="M-424.72 4.25 C-420.24 2.11, -415.77 -0.03, -411.19 -2.23 M-424.72 4.25 C-420.43 2.2, -416.15 0.15, -411.19 -2.23 M-411.19 -2.23 C-411.15 1.78, -411.11 5.78, -411.06 10.45 M-411.19 -2.23 C-411.16 0.35, -411.13 2.92, -411.06 10.45 M-411.06 10.45 C-416.26 8.09, -421.46 5.73, -424.72 4.25 M-411.06 10.45 C-414.07 9.09, -417.08 7.72, -424.72 4.25 M-424.72 4.25 C-424.72 4.25, -424.72 4.25, -424.72 4.25 M-424.72 4.25 C-424.72 4.25, -424.72 4.25, -424.72 4.25" stroke="#1e1e1e" stroke-width="4" fill="none"></path></g></g><mask></mask><g stroke-linecap="round" transform="translate(6369.87513595133 1741.3531607427303) rotate(0 84.24126299999989 366.6963615000004)"><path d="M32 0 C63.7 0, 95.4 0, 136.48 0 M32 0 C58.87 0, 85.74 0, 136.48 0 M136.48 0 C157.82 0, 168.48 10.67, 168.48 32 M136.48 0 C157.82 0, 168.48 10.67, 168.48 32 M168.48 32 C168.48 291.85, 168.48 551.69, 168.48 701.39 M168.48 32 C168.48 277.29, 168.48 522.57, 168.48 701.39 M168.48 701.39 C168.48 722.73, 157.82 733.39, 136.48 733.39 M168.48 701.39 C168.48 722.73, 157.82 733.39, 136.48 733.39 M136.48 733.39 C107.13 733.39, 77.78 733.39, 32 733.39 M136.48 733.39 C105.58 733.39, 74.69 733.39, 32 733.39 M32 733.39 C10.67 733.39, 0 722.73, 0 701.39 M32 733.39 C10.67 733.39, 0 722.73, 0 701.39 M0 701.39 C0 466.81, 0 232.22, 0 32 M0 701.39 C0 508.36, 0 315.32, 0 32 M0 32 C0 10.67, 10.67 0, 32 0 M0 32 C0 10.67, 10.67 0, 32 0" stroke="#1e1e1e" stroke-width="4" fill="none"></path></g><g transform="translate(6440.333064899183 1878.7026193691108) rotate(0 13.783333778381348 67.5)"><text x="0" y="31.536" font-family="Virgil, Segoe UI Emoji" font-size="36px" fill="#1e1e1e" text-anchor="start" style="white-space: pre;" direction="ltr" dominant-baseline="alphabetic">M</text><text x="0" y="76.536" font-family="Virgil, Segoe UI Emoji" font-size="36px" fill="#1e1e1e" text-anchor="start" style="white-space: pre;" direction="ltr" dominant-baseline="alphabetic">Q</text><text x="0" y="121.536" font-family="Virgil, Segoe UI Emoji" font-size="36px" fill="#1e1e1e" text-anchor="start" style="white-space: pre;" direction="ltr" dominant-baseline="alphabetic"></text></g><g stroke-linecap="round"><g transform="translate(6351.154855026751 2407.098181476138) rotate(0 -656.379842678667 0)"><path d="M0 0 C-218.79 0, -1093.97 0, -1312.76 0 M0 0 C-218.79 0, -1093.97 0, -1312.76 0" stroke="#1e1e1e" stroke-width="4" fill="none"></path></g><g transform="translate(6351.154855026751 2407.098181476138) rotate(0 -656.379842678667 0)"><path d="M-1312.76 0 L-1299.17 -6.34 L-1299.17 6.34 L-1312.76 0" stroke="none" stroke-width="0" fill="#1e1e1e" fill-rule="evenodd"></path><path d="M-1312.76 0 C-1307.53 -2.44, -1302.31 -4.87, -1299.17 -6.34 M-1312.76 0 C-1308.81 -1.84, -1304.87 -3.68, -1299.17 -6.34 M-1299.17 -6.34 C-1299.17 -3.66, -1299.17 -0.98, -1299.17 6.34 M-1299.17 -6.34 C-1299.17 -1.67, -1299.17 2.99, -1299.17 6.34 M-1299.17 6.34 C-1302.34 4.86, -1305.51 3.38, -1312.76 0 M-1299.17 6.34 C-1302.6 4.74, -1306.03 3.14, -1312.76 0 M-1312.76 0 C-1312.76 0, -1312.76 0, -1312.76 0 M-1312.76 0 C-1312.76 0, -1312.76 0, -1312.76 0" stroke="#1e1e1e" stroke-width="4" fill="none"></path></g></g><mask></mask><g transform="translate(6274.016392732232 2171.3026260761744) rotate(270 180.10000610351562 22.5)"><text x="0" y="31.536" font-family="Virgil, Segoe UI Emoji" font-size="36px" fill="#1e1e1e" text-anchor="start" style="white-space: pre;" direction="ltr" dominant-baseline="alphabetic">(maybe reuse kafka)</text></g><g stroke-linecap="round" transform="translate(3096.1666151674945 1505.314053977103) rotate(0 383.85201438752483 329.01601233216206)"><path d="M32 0 C240.4 0, 448.81 0, 735.7 0 M32 0 C186.76 0, 341.52 0, 735.7 0 M735.7 0 C757.04 0, 767.7 10.67, 767.7 32 M735.7 0 C757.04 0, 767.7 10.67, 767.7 32 M767.7 32 C767.7 174.32, 767.7 316.64, 767.7 626.03 M767.7 32 C767.7 227, 767.7 422.01, 767.7 626.03 M767.7 626.03 C767.7 647.37, 757.04 658.03, 735.7 658.03 M767.7 626.03 C767.7 647.37, 757.04 658.03, 735.7 658.03 M735.7 658.03 C565.27 658.03, 394.84 658.03, 32 658.03 M735.7 658.03 C484.3 658.03, 232.9 658.03, 32 658.03 M32 658.03 C10.67 658.03, 0 647.37, 0 626.03 M32 658.03 C10.67 658.03, 0 647.37, 0 626.03 M0 626.03 C0 486.58, 0 347.13, 0 32 M0 626.03 C0 478.29, 0 330.55, 0 32 M0 32 C0 10.67, 10.67 0, 32 0 M0 32 C0 10.67, 10.67 0, 32 0" stroke="#1e1e1e" stroke-width="4" fill="none"></path></g><g stroke-linecap="round" transform="translate(4224.177444951325 1035.74716974273) rotate(0 116.88726753905758 101.83675099999891)"><path d="M146.25 25.5 C163.73 40.8, 181.21 56.09, 204.52 76.5 M146.25 25.5 C169.46 45.81, 192.67 66.13, 204.52 76.5 M204.52 76.5 C233.77 102, 233.77 102, 204.52 127.5 M204.52 76.5 C233.77 102, 233.77 102, 204.52 127.5 M204.52 127.5 C184.71 144.73, 164.9 161.96, 146.25 178.17 M204.52 127.5 C187.85 142, 171.18 156.5, 146.25 178.17 M146.25 178.17 C117 203.67, 117 203.67, 87.75 178.17 M146.25 178.17 C117 203.67, 117 203.67, 87.75 178.17 M87.75 178.17 C75.13 167.24, 62.51 156.31, 29.25 127.5 M87.75 178.17 C72.75 165.18, 57.76 152.19, 29.25 127.5 M29.25 127.5 C0 102, 0 102, 29.25 76.5 M29.25 127.5 C0 102, 0 102, 29.25 76.5 M29.25 76.5 C45.35 62.47, 61.44 48.43, 87.75 25.5 M29.25 76.5 C50.23 58.21, 71.21 39.92, 87.75 25.5 M87.75 25.5 C117 0, 117 0, 146.25 25.5 M87.75 25.5 C117 0, 117 0, 146.25 25.5" stroke="#1e1e1e" stroke-width="4" fill="none"></path></g><g transform="translate(4287.598045694831 1120.5606086123353) rotate(0 53.46666717529297 22.5)"><text x="0" y="31.536" font-family="Virgil, Segoe UI Emoji" font-size="36px" fill="#1e1e1e" text-anchor="start" style="white-space: pre;" direction="ltr" dominant-baseline="alphabetic">Auth0</text></g><g stroke-linecap="round"><g transform="translate(4663.321831802263 1291.7422564983335) rotate(0 -118.33032022472617 -43.291580570021324)"><path d="M0 0 C-39.44 -14.43, -197.22 -72.15, -236.66 -86.58 M0 0 C-39.44 -14.43, -197.22 -72.15, -236.66 -86.58" stroke="#1e1e1e" stroke-width="4" fill="none"></path></g><g transform="translate(4663.321831802263 1291.7422564983335) rotate(0 -118.33032022472617 -43.291580570021324)"><path d="M-236.66 -86.58 L-221.72 -87.87 L-226.07 -75.96 L-236.66 -86.58" stroke="none" stroke-width="0" fill="#1e1e1e" fill-rule="evenodd"></path><path d="M-236.66 -86.58 C-233.58 -86.85, -230.49 -87.11, -221.72 -87.87 M-236.66 -86.58 C-233.33 -86.87, -229.99 -87.16, -221.72 -87.87 M-221.72 -87.87 C-223.14 -83.96, -224.57 -80.06, -226.07 -75.96 M-221.72 -87.87 C-223.38 -83.31, -225.05 -78.76, -226.07 -75.96 M-226.07 -75.96 C-228.69 -78.58, -231.3 -81.21, -236.66 -86.58 M-226.07 -75.96 C-228.29 -78.18, -230.51 -80.41, -236.66 -86.58 M-236.66 -86.58 C-236.66 -86.58, -236.66 -86.58, -236.66 -86.58 M-236.66 -86.58 C-236.66 -86.58, -236.66 -86.58, -236.66 -86.58" stroke="#1e1e1e" stroke-width="4" fill="none"></path></g></g><mask></mask><g stroke-linecap="round" transform="translate(5547.999068951332 367.84629292854333) rotate(0 413.39701950000017 164.11238390709332)"><path d="M32 0 C189.92 0, 347.84 0, 794.79 0 M32 0 C191.01 0, 350.02 0, 794.79 0 M794.79 0 C816.13 0, 826.79 10.67, 826.79 32 M794.79 0 C816.13 0, 826.79 10.67, 826.79 32 M826.79 32 C826.79 118.48, 826.79 204.96, 826.79 296.22 M826.79 32 C826.79 123.93, 826.79 215.87, 826.79 296.22 M826.79 296.22 C826.79 317.56, 816.13 328.22, 794.79 328.22 M826.79 296.22 C826.79 317.56, 816.13 328.22, 794.79 328.22 M794.79 328.22 C575.75 328.22, 356.72 328.22, 32 328.22 M794.79 328.22 C546.99 328.22, 299.18 328.22, 32 328.22 M32 328.22 C10.67 328.22, 0 317.56, 0 296.22 M32 328.22 C10.67 328.22, 0 317.56, 0 296.22 M0 296.22 C0 224.83, 0 153.44, 0 32 M0 296.22 C0 201.65, 0 107.07, 0 32 M0 32 C0 10.67, 10.67 0, 32 0 M0 32 C0 10.67, 10.67 0, 32 0" stroke="#1e1e1e" stroke-width="4" fill="none"></path></g><g stroke-linecap="round"><g transform="translate(5047.173846189788 841.5098185701154) rotate(0 238.1036931351191 -128.4316890243972)"><path d="M0 0 C79.37 -42.81, 396.84 -214.05, 476.21 -256.86 M0 0 C79.37 -42.81, 396.84 -214.05, 476.21 -256.86" stroke="#1e1e1e" stroke-width="4" fill="none"></path></g><g transform="translate(5047.173846189788 841.5098185701154) rotate(0 238.1036931351191 -128.4316890243972)"><path d="M476.21 -256.86 L467.25 -244.83 L461.23 -255.99 L476.21 -256.86" stroke="none" stroke-width="0" fill="#1e1e1e" fill-rule="evenodd"></path><path d="M476.21 -256.86 C473.22 -252.85, 470.23 -248.83, 467.25 -244.83 M476.21 -256.86 C473.72 -253.53, 471.24 -250.19, 467.25 -244.83 M467.25 -244.83 C465.51 -248.06, 463.77 -251.29, 461.23 -255.99 M467.25 -244.83 C465.25 -248.54, 463.25 -252.25, 461.23 -255.99 M461.23 -255.99 C464.41 -256.17, 467.59 -256.36, 476.21 -256.86 M461.23 -255.99 C465.88 -256.26, 470.53 -256.53, 476.21 -256.86 M476.21 -256.86 C476.21 -256.86, 476.21 -256.86, 476.21 -256.86 M476.21 -256.86 C476.21 -256.86, 476.21 -256.86, 476.21 -256.86" stroke="#1e1e1e" stroke-width="4" fill="none"></path></g></g><mask></mask><g transform="translate(5708.0919762254525 723.1794983453892) rotate(0 115.61666870117188 22.5)"><text x="0" y="31.536" font-family="Virgil, Segoe UI Emoji" font-size="36px" fill="#1e1e1e" text-anchor="start" style="white-space: pre;" direction="ltr" dominant-baseline="alphabetic">Blob Storage</text></g><g transform="translate(3176.9775655648846 2186.4349216121245) rotate(0 173.28334045410156 22.5)"><text x="0" y="31.536" font-family="Virgil, Segoe UI Emoji" font-size="36px" fill="#1e1e1e" text-anchor="start" style="white-space: pre;" direction="ltr" dominant-baseline="alphabetic">Desktop/Mobile/Web</text></g><g stroke-linecap="round" transform="translate(4976.384239886473 1388.818108065081) rotate(0 76.05114041731395 63.51711500000056)"><path d="M31.76 0 C54.6 0, 77.44 0, 120.34 0 M31.76 0 C56.83 0, 81.91 0, 120.34 0 M120.34 0 C141.52 0, 152.1 10.59, 152.1 31.76 M120.34 0 C141.52 0, 152.1 10.59, 152.1 31.76 M152.1 31.76 C152.1 47.29, 152.1 62.82, 152.1 95.28 M152.1 31.76 C152.1 56.5, 152.1 81.24, 152.1 95.28 M152.1 95.28 C152.1 116.45, 141.52 127.03, 120.34 127.03 M152.1 95.28 C152.1 116.45, 141.52 127.03, 120.34 127.03 M120.34 127.03 C90.46 127.03, 60.58 127.03, 31.76 127.03 M120.34 127.03 C100.7 127.03, 81.05 127.03, 31.76 127.03 M31.76 127.03 C10.59 127.03, 0 116.45, 0 95.28 M31.76 127.03 C10.59 127.03, 0 116.45, 0 95.28 M0 95.28 C0 76.45, 0 57.63, 0 31.76 M0 95.28 C0 78.1, 0 60.92, 0 31.76 M0 31.76 C0 10.59, 10.59 0, 31.76 0 M0 31.76 C0 10.59, 10.59 0, 31.76 0" stroke="#1e1e1e" stroke-width="4" fill="none"></path></g><g transform="translate(5001.05204528958 1429.9027962921919) rotate(0 51.38333511352539 22.5)"><text x="0" y="31.536" font-family="Virgil, Segoe UI Emoji" font-size="36px" fill="#1e1e1e" text-anchor="start" style="white-space: pre;" direction="ltr" dominant-baseline="alphabetic">Cache</text></g></svg>