<svg version="1.1" xmlns="http://www.w3.org/2000/svg" viewBox="0 0 1717.586022847092 2502.4653327081032" width="3435.172045694184" height="5004.9306654162065" filter="invert(93%) hue-rotate(180deg)">
  <!-- svg-source:excalidraw -->
  
  <defs>
    <style class="style-fonts">
      @font-face {
        font-family: "Virgil";
        src: url("https://excalidraw.com/Virgil.woff2");
      }
      @font-face {
        font-family: "Cascadia";
        src: url("https://excalidraw.com/Cascadia.woff2");
      }
      @font-face {
        font-family: "Assistant";
        src: url("https://excalidraw.com/Assistant-Regular.woff2");
      }
    </style>
    
  </defs>
  <rect x="0" y="0" width="1717.586022847092" height="2502.4653327081032" fill="#ffffff"></rect><g transform="translate(29.75877386477805 10) rotate(0 98.816665648661 67.49999999948523)"><text x="0" y="31.535999999759667" font-family="Virgil, Segoe UI Emoji" font-size="35.99999999972565px" fill="#1e1e1e" text-anchor="start" style="white-space: pre;" direction="ltr" dominant-baseline="alphabetic">File Sharing</text><text x="0" y="76.53599999941673" font-family="Virgil, Segoe UI Emoji" font-size="35.99999999972565px" fill="#1e1e1e" text-anchor="start" style="white-space: pre;" direction="ltr" dominant-baseline="alphabetic"></text><text x="0" y="121.5359999990738" font-family="Virgil, Segoe UI Emoji" font-size="35.99999999972565px" fill="#1e1e1e" text-anchor="start" style="white-space: pre;" direction="ltr" dominant-baseline="alphabetic"></text></g><g transform="translate(35.96857882959739 144.99999992587618) rotate(0 687.6500244140625 87.5)"><text x="0" y="24.528" font-family="Virgil, Segoe UI Emoji" font-size="28px" fill="#1e1e1e" text-anchor="start" style="white-space: pre;" direction="ltr" dominant-baseline="alphabetic">We have multiple servers and users are consistently hashed to a particular server for all devices.</text><text x="0" y="59.528" font-family="Virgil, Segoe UI Emoji" font-size="28px" fill="#1e1e1e" text-anchor="start" style="white-space: pre;" direction="ltr" dominant-baseline="alphabetic"></text><text x="0" y="94.52799999999999" font-family="Virgil, Segoe UI Emoji" font-size="28px" fill="#1e1e1e" text-anchor="start" style="white-space: pre;" direction="ltr" dominant-baseline="alphabetic">The File Upload Service and the Share and Download can now be separated into two. Emphasizing</text><text x="0" y="129.528" font-family="Virgil, Segoe UI Emoji" font-size="28px" fill="#1e1e1e" text-anchor="start" style="white-space: pre;" direction="ltr" dominant-baseline="alphabetic">more on the SRP.</text><text x="0" y="164.528" font-family="Virgil, Segoe UI Emoji" font-size="28px" fill="#1e1e1e" text-anchor="start" style="white-space: pre;" direction="ltr" dominant-baseline="alphabetic"></text></g><g stroke-linecap="round" transform="translate(48.450304274352675 574.9636194124723) rotate(0 85.77375568878051 65.06974569493832)"><path d="M32 0 C67.17 0, 102.34 0, 139.55 0 M32 0 C62.72 0, 93.44 0, 139.55 0 M139.55 0 C160.88 0, 171.55 10.67, 171.55 32 M139.55 0 C160.88 0, 171.55 10.67, 171.55 32 M171.55 32 C171.55 52.44, 171.55 72.87, 171.55 98.14 M171.55 32 C171.55 49.73, 171.55 67.46, 171.55 98.14 M171.55 98.14 C171.55 119.47, 160.88 130.14, 139.55 130.14 M171.55 98.14 C171.55 119.47, 160.88 130.14, 139.55 130.14 M139.55 130.14 C101.89 130.14, 64.23 130.14, 32 130.14 M139.55 130.14 C101.61 130.14, 63.66 130.14, 32 130.14 M32 130.14 C10.67 130.14, 0 119.47, 0 98.14 M32 130.14 C10.67 130.14, 0 119.47, 0 98.14 M0 98.14 C0 80.65, 0 63.16, 0 32 M0 98.14 C0 75, 0 51.86, 0 32 M0 32 C0 10.67, 10.67 0, 32 0 M0 32 C0 10.67, 10.67 0, 32 0" stroke="#1e1e1e" stroke-width="4" fill="none"></path></g><g transform="translate(82.9907263754867 605.0333651074106) rotate(0 51.233333587646484 35)"><text x="51.233333587646484" y="24.528" font-family="Virgil, Segoe UI Emoji" font-size="28px" fill="#1e1e1e" text-anchor="middle" style="white-space: pre;" direction="ltr" dominant-baseline="alphabetic">User </text><text x="51.233333587646484" y="59.528" font-family="Virgil, Segoe UI Emoji" font-size="28px" fill="#1e1e1e" text-anchor="middle" style="white-space: pre;" direction="ltr" dominant-baseline="alphabetic">Devices</text></g><g stroke-linecap="round" transform="translate(455.13621486771444 462.5704223030298) rotate(0 78.37946640526934 56.1965983068003)"><path d="M28.1 0 C66.19 0, 104.28 0, 128.66 0 M28.1 0 C56.86 0, 85.63 0, 128.66 0 M128.66 0 C147.39 0, 156.76 9.37, 156.76 28.1 M128.66 0 C147.39 0, 156.76 9.37, 156.76 28.1 M156.76 28.1 C156.76 39.38, 156.76 50.66, 156.76 84.29 M156.76 28.1 C156.76 39.88, 156.76 51.65, 156.76 84.29 M156.76 84.29 C156.76 103.03, 147.39 112.39, 128.66 112.39 M156.76 84.29 C156.76 103.03, 147.39 112.39, 128.66 112.39 M128.66 112.39 C89.41 112.39, 50.15 112.39, 28.1 112.39 M128.66 112.39 C99.78 112.39, 70.89 112.39, 28.1 112.39 M28.1 112.39 C9.37 112.39, 0 103.03, 0 84.29 M28.1 112.39 C9.37 112.39, 0 103.03, 0 84.29 M0 84.29 C0 64.48, 0 44.67, 0 28.1 M0 84.29 C0 65.37, 0 46.44, 0 28.1 M0 28.1 C0 9.37, 9.37 0, 28.1 0 M0 28.1 C0 9.37, 9.37 0, 28.1 0" stroke="#1e1e1e" stroke-width="4" fill="none"></path></g><g transform="translate(486.2656812729838 483.76702060983007) rotate(0 47.25 35)"><text x="47.25" y="24.528" font-family="Virgil, Segoe UI Emoji" font-size="28px" fill="#1e1e1e" text-anchor="middle" style="white-space: pre;" direction="ltr" dominant-baseline="alphabetic">Share</text><text x="47.25" y="59.528" font-family="Virgil, Segoe UI Emoji" font-size="28px" fill="#1e1e1e" text-anchor="middle" style="white-space: pre;" direction="ltr" dominant-baseline="alphabetic">Service</text></g><g stroke-linecap="round" transform="translate(666.2608838677115 462.5704223030298) rotate(0 78.37946640526934 56.1965983068003)"><path d="M28.1 0 C59.96 0, 91.83 0, 128.66 0 M28.1 0 C67.39 0, 106.68 0, 128.66 0 M128.66 0 C147.39 0, 156.76 9.37, 156.76 28.1 M128.66 0 C147.39 0, 156.76 9.37, 156.76 28.1 M156.76 28.1 C156.76 41.12, 156.76 54.14, 156.76 84.29 M156.76 28.1 C156.76 40.57, 156.76 53.03, 156.76 84.29 M156.76 84.29 C156.76 103.03, 147.39 112.39, 128.66 112.39 M156.76 84.29 C156.76 103.03, 147.39 112.39, 128.66 112.39 M128.66 112.39 C92.17 112.39, 55.68 112.39, 28.1 112.39 M128.66 112.39 C88.48 112.39, 48.3 112.39, 28.1 112.39 M28.1 112.39 C9.37 112.39, 0 103.03, 0 84.29 M28.1 112.39 C9.37 112.39, 0 103.03, 0 84.29 M0 84.29 C0 72.87, 0 61.45, 0 28.1 M0 84.29 C0 64.77, 0 45.24, 0 28.1 M0 28.1 C0 9.37, 9.37 0, 28.1 0 M0 28.1 C0 9.37, 9.37 0, 28.1 0" stroke="#1e1e1e" stroke-width="4" fill="none"></path></g><g transform="translate(697.3903502729809 483.76702060983007) rotate(0 47.25 35)"><text x="47.25" y="24.528" font-family="Virgil, Segoe UI Emoji" font-size="28px" fill="#1e1e1e" text-anchor="middle" style="white-space: pre;" direction="ltr" dominant-baseline="alphabetic">Upload</text><text x="47.25" y="59.528" font-family="Virgil, Segoe UI Emoji" font-size="28px" fill="#1e1e1e" text-anchor="middle" style="white-space: pre;" direction="ltr" dominant-baseline="alphabetic">Service</text></g><g stroke-linecap="round" transform="translate(682.1763148677128 717.5340413030281) rotate(0 78.37946640526934 56.1965983068003)"><path d="M28.1 0 C48.6 0, 69.1 0, 128.66 0 M28.1 0 C62.7 0, 97.31 0, 128.66 0 M128.66 0 C147.39 0, 156.76 9.37, 156.76 28.1 M128.66 0 C147.39 0, 156.76 9.37, 156.76 28.1 M156.76 28.1 C156.76 39.37, 156.76 50.65, 156.76 84.29 M156.76 28.1 C156.76 50.18, 156.76 72.26, 156.76 84.29 M156.76 84.29 C156.76 103.03, 147.39 112.39, 128.66 112.39 M156.76 84.29 C156.76 103.03, 147.39 112.39, 128.66 112.39 M128.66 112.39 C103.37 112.39, 78.09 112.39, 28.1 112.39 M128.66 112.39 C90.92 112.39, 53.18 112.39, 28.1 112.39 M28.1 112.39 C9.37 112.39, 0 103.03, 0 84.29 M28.1 112.39 C9.37 112.39, 0 103.03, 0 84.29 M0 84.29 C0 66.96, 0 49.62, 0 28.1 M0 84.29 C0 64.6, 0 44.9, 0 28.1 M0 28.1 C0 9.37, 9.37 0, 28.1 0 M0 28.1 C0 9.37, 9.37 0, 28.1 0" stroke="#1e1e1e" stroke-width="4" fill="none"></path></g><g transform="translate(713.3057812729821 738.7306396098284) rotate(0 47.25 35)"><text x="47.25" y="24.528" font-family="Virgil, Segoe UI Emoji" font-size="28px" fill="#1e1e1e" text-anchor="middle" style="white-space: pre;" direction="ltr" dominant-baseline="alphabetic">Upload</text><text x="47.25" y="59.528" font-family="Virgil, Segoe UI Emoji" font-size="28px" fill="#1e1e1e" text-anchor="middle" style="white-space: pre;" direction="ltr" dominant-baseline="alphabetic">Service</text></g><g stroke-linecap="round" transform="translate(455.13621486771444 717.5340413030281) rotate(0 78.37946640526934 56.1965983068003)"><path d="M28.1 0 C66.62 0, 105.15 0, 128.66 0 M28.1 0 C55.05 0, 82 0, 128.66 0 M128.66 0 C147.39 0, 156.76 9.37, 156.76 28.1 M128.66 0 C147.39 0, 156.76 9.37, 156.76 28.1 M156.76 28.1 C156.76 43.34, 156.76 58.59, 156.76 84.29 M156.76 28.1 C156.76 46.64, 156.76 65.19, 156.76 84.29 M156.76 84.29 C156.76 103.03, 147.39 112.39, 128.66 112.39 M156.76 84.29 C156.76 103.03, 147.39 112.39, 128.66 112.39 M128.66 112.39 C102.4 112.39, 76.14 112.39, 28.1 112.39 M128.66 112.39 C101.46 112.39, 74.26 112.39, 28.1 112.39 M28.1 112.39 C9.37 112.39, 0 103.03, 0 84.29 M28.1 112.39 C9.37 112.39, 0 103.03, 0 84.29 M0 84.29 C0 62.98, 0 41.67, 0 28.1 M0 84.29 C0 68.17, 0 52.04, 0 28.1 M0 28.1 C0 9.37, 9.37 0, 28.1 0 M0 28.1 C0 9.37, 9.37 0, 28.1 0" stroke="#1e1e1e" stroke-width="4" fill="none"></path></g><g transform="translate(486.2656812729838 738.7306396098284) rotate(0 47.25 35)"><text x="47.25" y="24.528" font-family="Virgil, Segoe UI Emoji" font-size="28px" fill="#1e1e1e" text-anchor="middle" style="white-space: pre;" direction="ltr" dominant-baseline="alphabetic">Share</text><text x="47.25" y="59.528" font-family="Virgil, Segoe UI Emoji" font-size="28px" fill="#1e1e1e" text-anchor="middle" style="white-space: pre;" direction="ltr" dominant-baseline="alphabetic">Service</text></g><g stroke-linecap="round" transform="translate(280.63098777674895 462.57042191663277) rotate(0 35.49258856087545 194.46980815646566)"><path d="M17.75 0 C29.69 0, 41.62 0, 53.24 0 M17.75 0 C30.15 0, 42.55 0, 53.24 0 M53.24 0 C65.07 0, 70.99 5.92, 70.99 17.75 M53.24 0 C65.07 0, 70.99 5.92, 70.99 17.75 M70.99 17.75 C70.99 154, 70.99 290.26, 70.99 371.19 M70.99 17.75 C70.99 101.36, 70.99 184.98, 70.99 371.19 M70.99 371.19 C70.99 383.02, 65.07 388.94, 53.24 388.94 M70.99 371.19 C70.99 383.02, 65.07 388.94, 53.24 388.94 M53.24 388.94 C41.8 388.94, 30.36 388.94, 17.75 388.94 M53.24 388.94 C41.93 388.94, 30.61 388.94, 17.75 388.94 M17.75 388.94 C5.92 388.94, 0 383.02, 0 371.19 M17.75 388.94 C5.92 388.94, 0 383.02, 0 371.19 M0 371.19 C0 283.56, 0 195.93, 0 17.75 M0 371.19 C0 291.63, 0 212.07, 0 17.75 M0 17.75 C0 5.92, 5.92 0, 17.75 0 M0 17.75 C0 5.92, 5.92 0, 17.75 0" stroke="#1e1e1e" stroke-width="4" fill="none"></path></g><g transform="translate(287.82357710056385 604.5402300731002) rotate(0 28.299999237060547 52.5)"><text x="28.299999237060547" y="24.528" font-family="Virgil, Segoe UI Emoji" font-size="28px" fill="#1e1e1e" text-anchor="middle" style="white-space: pre;" direction="ltr" dominant-baseline="alphabetic">Gat</text><text x="28.299999237060547" y="59.528" font-family="Virgil, Segoe UI Emoji" font-size="28px" fill="#1e1e1e" text-anchor="middle" style="white-space: pre;" direction="ltr" dominant-baseline="alphabetic">ewa</text><text x="28.299999237060547" y="94.52799999999999" font-family="Virgil, Segoe UI Emoji" font-size="28px" fill="#1e1e1e" text-anchor="middle" style="white-space: pre;" direction="ltr" dominant-baseline="alphabetic">y</text></g><g stroke-linecap="round"><g transform="translate(227.39210493543214 631.16021796719) rotate(0 110.91433925273668 -56.19659855471946)"><path d="M0 0 C36.97 -18.73, 184.86 -93.66, 221.83 -112.39 M0 0 C36.97 -18.73, 184.86 -93.66, 221.83 -112.39" stroke="#1e1e1e" stroke-width="4" fill="none"></path></g><g transform="translate(227.39210493543214 631.16021796719) rotate(0 110.91433925273668 -56.19659855471946)"><path d="M204.74 -94.15 C210.24 -100.02, 215.74 -105.9, 221.83 -112.39 M204.74 -94.15 C209.01 -98.71, 213.29 -103.27, 221.83 -112.39" stroke="#1e1e1e" stroke-width="4" fill="none"></path></g><g transform="translate(227.39210493543214 631.16021796719) rotate(0 110.91433925273668 -56.19659855471946)"><path d="M197.01 -109.4 C205 -110.37, 212.99 -111.33, 221.83 -112.39 M197.01 -109.4 C203.22 -110.15, 209.42 -110.9, 221.83 -112.39" stroke="#1e1e1e" stroke-width="4" fill="none"></path></g></g><mask></mask><g transform="translate(45.49258856090455 1036.3672707038713) rotate(0 575.0499877929688 122.5)"><text x="0" y="24.528" font-family="Virgil, Segoe UI Emoji" font-size="28px" fill="#1e1e1e" text-anchor="start" style="white-space: pre;" direction="ltr" dominant-baseline="alphabetic">As to how this will work. Once the user calls the share API. An event is used</text><text x="0" y="59.528" font-family="Virgil, Segoe UI Emoji" font-size="28px" fill="#1e1e1e" text-anchor="start" style="white-space: pre;" direction="ltr" dominant-baseline="alphabetic">to notify all the users and update the db with the proper records.</text><text x="0" y="94.52799999999999" font-family="Virgil, Segoe UI Emoji" font-size="28px" fill="#1e1e1e" text-anchor="start" style="white-space: pre;" direction="ltr" dominant-baseline="alphabetic"></text><text x="0" y="129.528" font-family="Virgil, Segoe UI Emoji" font-size="28px" fill="#1e1e1e" text-anchor="start" style="white-space: pre;" direction="ltr" dominant-baseline="alphabetic">In case of Kakfka, it would mean, using a single leader per file maybe. The append</text><text x="0" y="164.528" font-family="Virgil, Segoe UI Emoji" font-size="28px" fill="#1e1e1e" text-anchor="start" style="white-space: pre;" direction="ltr" dominant-baseline="alphabetic">only log, will ensure that, permission changes are atomic and sequential.</text><text x="0" y="199.528" font-family="Virgil, Segoe UI Emoji" font-size="28px" fill="#1e1e1e" text-anchor="start" style="white-space: pre;" direction="ltr" dominant-baseline="alphabetic"></text><text x="0" y="234.528" font-family="Virgil, Segoe UI Emoji" font-size="28px" fill="#1e1e1e" text-anchor="start" style="white-space: pre;" direction="ltr" dominant-baseline="alphabetic">We will probably use redis instead of kafka.</text></g><g stroke-linecap="round" transform="translate(70.63317212482798 1457.8417598642773) rotate(0 164.89265102240097 107.95662353932858)"><path d="M32 0 C98.98 0, 165.96 0, 297.79 0 M32 0 C104.89 0, 177.77 0, 297.79 0 M297.79 0 C319.12 0, 329.79 10.67, 329.79 32 M297.79 0 C319.12 0, 329.79 10.67, 329.79 32 M329.79 32 C329.79 87.12, 329.79 142.24, 329.79 183.91 M329.79 32 C329.79 63.17, 329.79 94.35, 329.79 183.91 M329.79 183.91 C329.79 205.25, 319.12 215.91, 297.79 215.91 M329.79 183.91 C329.79 205.25, 319.12 215.91, 297.79 215.91 M297.79 215.91 C232.02 215.91, 166.25 215.91, 32 215.91 M297.79 215.91 C227.17 215.91, 156.55 215.91, 32 215.91 M32 215.91 C10.67 215.91, 0 205.25, 0 183.91 M32 215.91 C10.67 215.91, 0 205.25, 0 183.91 M0 183.91 C0 139.18, 0 94.44, 0 32 M0 183.91 C0 130.37, 0 76.83, 0 32 M0 32 C0 10.67, 10.67 0, 32 0 M0 32 C0 10.67, 10.67 0, 32 0" stroke="#1e1e1e" stroke-width="4" fill="none"></path></g><g transform="translate(122.04249337428337 1530.7983834036058) rotate(0 113.48332977294922 35)"><text x="113.48332977294922" y="24.528" font-family="Virgil, Segoe UI Emoji" font-size="28px" fill="#1e1e1e" text-anchor="middle" style="white-space: pre;" direction="ltr" dominant-baseline="alphabetic">Persistent SST </text><text x="113.48332977294922" y="59.528" font-family="Virgil, Segoe UI Emoji" font-size="28px" fill="#1e1e1e" text-anchor="middle" style="white-space: pre;" direction="ltr" dominant-baseline="alphabetic">Connection</text></g><g stroke-linecap="round" transform="translate(70.63317212483526 1717.7687378642804) rotate(0 164.89265102240097 107.95662353932858)"><path d="M32 0 C119.62 0, 207.24 0, 297.79 0 M32 0 C105.44 0, 178.87 0, 297.79 0 M297.79 0 C319.12 0, 329.79 10.67, 329.79 32 M297.79 0 C319.12 0, 329.79 10.67, 329.79 32 M329.79 32 C329.79 80.18, 329.79 128.35, 329.79 183.91 M329.79 32 C329.79 66.62, 329.79 101.24, 329.79 183.91 M329.79 183.91 C329.79 205.25, 319.12 215.91, 297.79 215.91 M329.79 183.91 C329.79 205.25, 319.12 215.91, 297.79 215.91 M297.79 215.91 C207.55 215.91, 117.32 215.91, 32 215.91 M297.79 215.91 C218.68 215.91, 139.58 215.91, 32 215.91 M32 215.91 C10.67 215.91, 0 205.25, 0 183.91 M32 215.91 C10.67 215.91, 0 205.25, 0 183.91 M0 183.91 C0 123.96, 0 64.01, 0 32 M0 183.91 C0 143.23, 0 102.54, 0 32 M0 32 C0 10.67, 10.67 0, 32 0 M0 32 C0 10.67, 10.67 0, 32 0" stroke="#1e1e1e" stroke-width="4" fill="none"></path></g><g transform="translate(121.10915902369743 1808.225361403609) rotate(0 114.41666412353516 17.5)"><text x="114.41666412353516" y="24.528" font-family="Virgil, Segoe UI Emoji" font-size="28px" fill="#1e1e1e" text-anchor="middle" style="white-space: pre;" direction="ltr" dominant-baseline="alphabetic">Share Consumers</text></g><g stroke-linecap="round" transform="translate(466.0019299955529 1457.841759916635) rotate(0 154.54064602547805 107.95662349999839)"><path d="M32 0 C94.73 0, 157.45 0, 277.08 0 M32 0 C102.32 0, 172.64 0, 277.08 0 M277.08 0 C298.41 0, 309.08 10.67, 309.08 32 M277.08 0 C298.41 0, 309.08 10.67, 309.08 32 M309.08 32 C309.08 62.6, 309.08 93.2, 309.08 183.91 M309.08 32 C309.08 66.42, 309.08 100.85, 309.08 183.91 M309.08 183.91 C309.08 205.25, 298.41 215.91, 277.08 215.91 M309.08 183.91 C309.08 205.25, 298.41 215.91, 277.08 215.91 M277.08 215.91 C187.75 215.91, 98.42 215.91, 32 215.91 M277.08 215.91 C182.74 215.91, 88.41 215.91, 32 215.91 M32 215.91 C10.67 215.91, 0 205.25, 0 183.91 M32 215.91 C10.67 215.91, 0 205.25, 0 183.91 M0 183.91 C0 136.66, 0 89.41, 0 32 M0 183.91 C0 140.04, 0 96.17, 0 32 M0 32 C0 10.67, 10.67 0, 32 0 M0 32 C0 10.67, 10.67 0, 32 0" stroke="#1e1e1e" stroke-width="4" fill="none"></path></g><g transform="translate(549.0425760210273 1548.298383416637) rotate(0 71.5 17.5)"><text x="71.5" y="24.528" font-family="Virgil, Segoe UI Emoji" font-size="28px" fill="#1e1e1e" text-anchor="middle" style="white-space: pre;" direction="ltr" dominant-baseline="alphabetic">Share API</text></g><g stroke-linecap="round" transform="translate(10 1391.2931563126367) rotate(0 456.22764879291935 304.6447184808476)"><path d="M32 0 C345.83 0, 659.65 0, 880.46 0 M32 0 C223.97 0, 415.93 0, 880.46 0 M880.46 0 C901.79 0, 912.46 10.67, 912.46 32 M880.46 0 C901.79 0, 912.46 10.67, 912.46 32 M912.46 32 C912.46 249.88, 912.46 467.77, 912.46 577.29 M912.46 32 C912.46 192.97, 912.46 353.94, 912.46 577.29 M912.46 577.29 C912.46 598.62, 901.79 609.29, 880.46 609.29 M912.46 577.29 C912.46 598.62, 901.79 609.29, 880.46 609.29 M880.46 609.29 C559.46 609.29, 238.46 609.29, 32 609.29 M880.46 609.29 C693.49 609.29, 506.53 609.29, 32 609.29 M32 609.29 C10.67 609.29, 0 598.62, 0 577.29 M32 609.29 C10.67 609.29, 0 598.62, 0 577.29 M0 577.29 C0 427.2, 0 277.12, 0 32 M0 577.29 C0 451.6, 0 325.91, 0 32 M0 32 C0 10.67, 10.67 0, 32 0 M0 32 C0 10.67, 10.67 0, 32 0" stroke="#1e1e1e" stroke-width="4" fill="none"></path></g><g transform="translate(589.716553544109 1942.6608425824743) rotate(0 92.68333435058594 17.5)"><text x="0" y="24.528" font-family="Virgil, Segoe UI Emoji" font-size="28px" fill="#1e1e1e" text-anchor="start" style="white-space: pre;" direction="ltr" dominant-baseline="alphabetic">Share Service</text></g><g mask="url(#mask-AAejYYSkOWs4uaSSa5odZ)" stroke-linecap="round"><g transform="translate(789.3580904825649 1579.1081041139405) rotate(0 246.22983314107478 -0.7394289283511171)"><path d="M0 0 C82.08 -0.25, 410.38 -1.23, 492.46 -1.48 M0 0 C82.08 -0.25, 410.38 -1.23, 492.46 -1.48" stroke="#1e1e1e" stroke-width="4" fill="none"></path></g><g transform="translate(789.3580904825649 1579.1081041139405) rotate(0 246.22983314107478 -0.7394289283511171)"><path d="M468.99 7.14 C473.93 5.33, 478.86 3.52, 492.46 -1.48 M468.99 7.14 C478.19 3.76, 487.39 0.38, 492.46 -1.48" stroke="#1e1e1e" stroke-width="4" fill="none"></path></g><g transform="translate(789.3580904825649 1579.1081041139405) rotate(0 246.22983314107478 -0.7394289283511171)"><path d="M468.94 -9.96 C473.89 -8.18, 478.83 -6.39, 492.46 -1.48 M468.94 -9.96 C478.16 -6.63, 487.38 -3.31, 492.46 -1.48" stroke="#1e1e1e" stroke-width="4" fill="none"></path></g></g><mask id="mask-AAejYYSkOWs4uaSSa5odZ"><rect x="0" y="0" fill="#fff" width="1381.8177567647144" height="1680.5869619706427"></rect><rect x="944.8045907989363" y="1560.8686751855857" fill="#000" width="181.56666564941406" height="35" opacity="1"></rect></mask><g transform="translate(944.8045907989363 1560.8686751855857) rotate(0 90.7833328247034 17.500000000003638)"><text x="90.78333282470703" y="24.528" font-family="Virgil, Segoe UI Emoji" font-size="28px" fill="#1e1e1e" text-anchor="middle" style="white-space: pre;" direction="ltr" dominant-baseline="alphabetic">Upsert in DB</text></g><g stroke-linecap="round" transform="translate(1281.8177571620981 1522.1720759166274) rotate(0 64.3303167665872 56.19659855471764)"><path d="M128.66 56.2 C128.66 58.45, 128.5 60.73, 128.19 62.97 C127.88 65.21, 127.41 67.45, 126.79 69.65 C126.17 71.84, 125.4 74.01, 124.48 76.12 C123.56 78.24, 122.49 80.31, 121.29 82.31 C120.09 84.31, 118.74 86.26, 117.27 88.12 C115.8 89.98, 114.2 91.77, 112.48 93.46 C110.77 95.15, 108.92 96.76, 106.99 98.26 C105.05 99.76, 103 101.16, 100.87 102.45 C98.75 103.73, 96.51 104.91, 94.23 105.96 C91.94 107.01, 89.56 107.94, 87.14 108.74 C84.73 109.54, 82.24 110.22, 79.73 110.76 C77.22 111.3, 74.65 111.71, 72.08 111.98 C69.52 112.26, 66.92 112.39, 64.33 112.39 C61.75 112.39, 59.14 112.26, 56.58 111.98 C54.01 111.71, 51.44 111.3, 48.94 110.76 C46.43 110.22, 43.94 109.54, 41.52 108.74 C39.1 107.94, 36.72 107.01, 34.43 105.96 C32.15 104.91, 29.91 103.73, 27.79 102.45 C25.66 101.16, 23.61 99.76, 21.67 98.26 C19.74 96.76, 17.89 95.15, 16.18 93.46 C14.46 91.77, 12.86 89.98, 11.39 88.12 C9.92 86.26, 8.57 84.31, 7.37 82.31 C6.17 80.31, 5.1 78.24, 4.18 76.12 C3.26 74.01, 2.49 71.84, 1.87 69.65 C1.25 67.45, 0.78 65.21, 0.47 62.97 C0.16 60.73, 0 58.45, 0 56.2 C0 53.94, 0.16 51.66, 0.47 49.42 C0.78 47.18, 1.25 44.94, 1.87 42.75 C2.49 40.56, 3.26 38.38, 4.18 36.27 C5.1 34.16, 6.17 32.08, 7.37 30.08 C8.57 28.08, 9.92 26.13, 11.39 24.27 C12.86 22.42, 14.46 20.62, 16.18 18.93 C17.89 17.24, 19.74 15.63, 21.67 14.13 C23.61 12.64, 25.66 11.23, 27.79 9.95 C29.91 8.67, 32.15 7.49, 34.43 6.44 C36.72 5.39, 39.1 4.45, 41.52 3.65 C43.94 2.85, 46.43 2.17, 48.94 1.63 C51.44 1.09, 54.01 0.68, 56.58 0.41 C59.14 0.14, 61.75 0, 64.33 0 C66.92 0, 69.52 0.14, 72.08 0.41 C74.65 0.68, 77.22 1.09, 79.73 1.63 C82.24 2.17, 84.73 2.85, 87.14 3.65 C89.56 4.45, 91.94 5.39, 94.23 6.44 C96.51 7.49, 98.75 8.67, 100.87 9.95 C103 11.23, 105.05 12.64, 106.99 14.13 C108.92 15.63, 110.77 17.24, 112.48 18.93 C114.2 20.62, 115.8 22.42, 117.27 24.27 C118.74 26.13, 120.09 28.08, 121.29 30.08 C122.49 32.08, 123.56 34.16, 124.48 36.27 C125.4 38.38, 126.17 40.56, 126.79 42.75 C127.41 44.94, 127.88 47.18, 128.19 49.42 C128.5 51.66, 128.66 53.94, 128.66 56.2" stroke="#1e1e1e" stroke-width="4" fill="none"></path></g><g transform="translate(1313.1596707071512 1560.6316785536837) rotate(0 33 17.5)"><text x="33" y="24.528" font-family="Virgil, Segoe UI Emoji" font-size="28px" fill="#1e1e1e" text-anchor="middle" style="white-space: pre;" direction="ltr" dominant-baseline="alphabetic">{Db}</text></g><g stroke-linecap="round"><g transform="translate(795.2735219093738 1623.4738398150294) rotate(0 239.5749727859111 130.13949138988028)"><path d="M0 0 C79.86 43.38, 399.29 216.9, 479.15 260.28 M0 0 C79.86 43.38, 399.29 216.9, 479.15 260.28" stroke="#1e1e1e" stroke-width="4" fill="none"></path></g><g transform="translate(795.2735219093738 1623.4738398150294) rotate(0 239.5749727859111 130.13949138988028)"><path d="M454.43 256.58 C459.85 257.39, 465.27 258.2, 479.15 260.28 M454.43 256.58 C460.86 257.54, 467.3 258.51, 479.15 260.28" stroke="#1e1e1e" stroke-width="4" fill="none"></path></g><g transform="translate(795.2735219093738 1623.4738398150294) rotate(0 239.5749727859111 130.13949138988028)"><path d="M462.59 241.55 C466.22 245.66, 469.85 249.76, 479.15 260.28 M462.59 241.55 C466.9 246.43, 471.21 251.3, 479.15 260.28" stroke="#1e1e1e" stroke-width="4" fill="none"></path></g></g><mask></mask><g stroke-linecap="round" transform="translate(1281.8177571620981 1843.2253609166291) rotate(0 144.9280699569099 49.71774100000039)"><path d="M24.86 0 C78.35 0, 131.85 0, 265 0 M24.86 0 C113.6 0, 202.35 0, 265 0 M265 0 C281.57 0, 289.86 8.29, 289.86 24.86 M265 0 C281.57 0, 289.86 8.29, 289.86 24.86 M289.86 24.86 C289.86 34.87, 289.86 44.88, 289.86 74.58 M289.86 24.86 C289.86 42.66, 289.86 60.47, 289.86 74.58 M289.86 74.58 C289.86 91.15, 281.57 99.44, 265 99.44 M289.86 74.58 C289.86 91.15, 281.57 99.44, 265 99.44 M265 99.44 C180.97 99.44, 96.95 99.44, 24.86 99.44 M265 99.44 C186.63 99.44, 108.26 99.44, 24.86 99.44 M24.86 99.44 C8.29 99.44, 0 91.15, 0 74.58 M24.86 99.44 C8.29 99.44, 0 91.15, 0 74.58 M0 74.58 C0 54.71, 0 34.84, 0 24.86 M0 74.58 C0 60.05, 0 45.53, 0 24.86 M0 24.86 C0 8.29, 8.29 0, 24.86 0 M0 24.86 C0 8.29, 8.29 0, 24.86 0" stroke="#1e1e1e" stroke-width="4" fill="none"></path></g><g transform="translate(1385.6791614695903 1875.4431019166295) rotate(0 41.06666564941406 17.5)"><text x="41.06666564941406" y="24.528" font-family="Virgil, Segoe UI Emoji" font-size="28px" fill="#1e1e1e" text-anchor="middle" style="white-space: pre;" direction="ltr" dominant-baseline="alphabetic">Queue</text></g><g mask="url(#mask-Hx3GGXR9r8Io0GQay8peX)" stroke-linecap="round"><g transform="translate(1268.5080360543798 1910.3722640154447) rotate(0 -432.56592308566906 1.4788578567022341)"><path d="M0 0 C-144.19 0.49, -720.94 2.46, -865.13 2.96 M0 0 C-144.19 0.49, -720.94 2.46, -865.13 2.96" stroke="#1e1e1e" stroke-width="4" fill="none"></path></g><g transform="translate(1268.5080360543798 1910.3722640154447) rotate(0 -432.56592308566906 1.4788578567022341)"><path d="M-841.67 -5.67 C-849.77 -2.69, -857.86 0.28, -865.13 2.96 M-841.67 -5.67 C-850.72 -2.34, -859.77 0.98, -865.13 2.96" stroke="#1e1e1e" stroke-width="4" fill="none"></path></g><g transform="translate(1268.5080360543798 1910.3722640154447) rotate(0 -432.56592308566906 1.4788578567022341)"><path d="M-841.61 11.43 C-849.73 8.51, -857.84 5.58, -865.13 2.96 M-841.61 11.43 C-850.68 8.16, -859.75 4.89, -865.13 2.96" stroke="#1e1e1e" stroke-width="4" fill="none"></path></g></g><mask id="mask-Hx3GGXR9r8Io0GQay8peX"><rect x="0" y="0" fill="#fff" width="2233.639882225718" height="2013.3299797288491"></rect><rect x="622.6087847216404" y="1894.351121872147" fill="#000" width="426.6666564941406" height="35" opacity="1"></rect></mask><g transform="translate(622.6087847216404 1894.351121872147) rotate(0 213.3333282470703 17.5)"><text x="213.3333282470703" y="24.528" font-family="Virgil, Segoe UI Emoji" font-size="28px" fill="#1e1e1e" text-anchor="middle" style="white-space: pre;" direction="ltr" dominant-baseline="alphabetic">Consume and map appropriately</text></g><g stroke-linecap="round" transform="translate(1401.7491113340875 2338.4251193189994) rotate(0 66.80315365531351 64.44539529100803)"><path d="M133.61 64.45 C133.61 67.03, 133.44 69.64, 133.12 72.21 C132.8 74.78, 132.31 77.35, 131.67 79.87 C131.02 82.38, 130.22 84.88, 129.27 87.3 C128.31 89.72, 127.2 92.1, 125.95 94.39 C124.71 96.69, 123.31 98.92, 121.78 101.05 C120.26 103.19, 118.59 105.24, 116.81 107.18 C115.03 109.12, 113.11 110.97, 111.1 112.68 C109.09 114.4, 106.96 116.01, 104.75 117.48 C102.54 118.95, 100.22 120.31, 97.85 121.51 C95.47 122.71, 93 123.78, 90.49 124.7 C87.98 125.62, 85.4 126.4, 82.79 127.02 C80.18 127.64, 77.52 128.11, 74.86 128.42 C72.19 128.73, 69.49 128.89, 66.8 128.89 C64.12 128.89, 61.42 128.73, 58.75 128.42 C56.09 128.11, 53.42 127.64, 50.82 127.02 C48.21 126.4, 45.62 125.62, 43.11 124.7 C40.6 123.78, 38.13 122.71, 35.76 121.51 C33.38 120.31, 31.06 118.95, 28.85 117.48 C26.65 116.01, 24.51 114.4, 22.5 112.68 C20.5 110.97, 18.58 109.12, 16.8 107.18 C15.02 105.24, 13.35 103.19, 11.83 101.05 C10.3 98.92, 8.9 96.69, 7.65 94.39 C6.4 92.1, 5.29 89.72, 4.34 87.3 C3.39 84.88, 2.58 82.38, 1.94 79.87 C1.3 77.35, 0.81 74.78, 0.49 72.21 C0.16 69.64, 0 67.03, 0 64.45 C0 61.86, 0.16 59.25, 0.49 56.68 C0.81 54.11, 1.3 51.54, 1.94 49.02 C2.58 46.51, 3.39 44.01, 4.34 41.59 C5.29 39.17, 6.4 36.79, 7.65 34.5 C8.9 32.2, 10.3 29.97, 11.83 27.84 C13.35 25.71, 15.02 23.65, 16.8 21.71 C18.58 19.77, 20.5 17.92, 22.5 16.21 C24.51 14.49, 26.65 12.88, 28.85 11.41 C31.06 9.94, 33.38 8.59, 35.76 7.38 C38.13 6.18, 40.6 5.11, 43.11 4.19 C45.62 3.27, 48.21 2.49, 50.82 1.87 C53.42 1.25, 56.09 0.78, 58.75 0.47 C61.42 0.16, 64.12 0, 66.8 0 C69.49 0, 72.19 0.16, 74.86 0.47 C77.52 0.78, 80.18 1.25, 82.79 1.87 C85.4 2.49, 87.98 3.27, 90.49 4.19 C93 5.11, 95.47 6.18, 97.85 7.38 C100.22 8.59, 102.54 9.94, 104.75 11.41 C106.96 12.88, 109.09 14.49, 111.1 16.21 C113.11 17.92, 115.03 19.77, 116.81 21.71 C118.59 23.65, 120.26 25.71, 121.78 27.84 C123.31 29.97, 124.71 32.2, 125.95 34.5 C127.2 36.79, 128.31 39.17, 129.27 41.59 C130.22 44.01, 131.02 46.51, 131.67 49.02 C132.31 51.54, 132.8 54.11, 133.12 56.68 C133.44 59.25, 133.61 61.86, 133.61 64.45" stroke="#1e1e1e" stroke-width="4" fill="none"></path></g><g transform="translate(1442.5486356227266 2390.3007385834862) rotate(0 25.766666412353516 12.5)"><text x="25.766666412353516" y="17.52" font-family="Virgil, Segoe UI Emoji" font-size="20px" fill="#1e1e1e" text-anchor="middle" style="white-space: pre;" direction="ltr" dominant-baseline="alphabetic">{DB}</text></g><g stroke-linecap="round" transform="translate(1297.5965433340825 2209.534328318994) rotate(0 66.80315365531351 70.5)"><path d="M133.61 70.5 C133.61 73.13, 133.47 75.78, 133.19 78.39 C132.91 81.01, 132.49 83.62, 131.93 86.19 C131.38 88.75, 130.68 91.3, 129.86 93.78 C129.03 96.27, 128.07 98.72, 126.99 101.09 C125.91 103.46, 124.69 105.78, 123.37 108.01 C122.04 110.24, 120.59 112.4, 119.03 114.46 C117.48 116.51, 115.8 118.49, 114.04 120.35 C112.28 122.21, 110.4 123.98, 108.45 125.62 C106.5 127.26, 104.46 128.79, 102.34 130.19 C100.23 131.59, 98.03 132.88, 95.79 134.02 C93.54 135.16, 91.22 136.17, 88.87 137.04 C86.51 137.91, 84.1 138.65, 81.67 139.23 C79.24 139.82, 76.76 140.26, 74.28 140.56 C71.81 140.85, 69.3 141, 66.8 141 C64.31 141, 61.8 140.85, 59.32 140.56 C56.85 140.26, 54.37 139.82, 51.94 139.23 C49.51 138.65, 47.09 137.91, 44.74 137.04 C42.39 136.17, 40.06 135.16, 37.82 134.02 C35.57 132.88, 33.37 131.59, 31.26 130.19 C29.15 128.79, 27.1 127.26, 25.15 125.62 C23.2 123.98, 21.33 122.21, 19.57 120.35 C17.8 118.49, 16.13 116.51, 14.57 114.46 C13.02 112.4, 11.57 110.24, 10.24 108.01 C8.91 105.78, 7.7 103.46, 6.62 101.09 C5.53 98.72, 4.57 96.27, 3.75 93.78 C2.93 91.3, 2.23 88.75, 1.67 86.19 C1.12 83.62, 0.7 81.01, 0.42 78.39 C0.14 75.78, 0 73.13, 0 70.5 C0 67.87, 0.14 65.22, 0.42 62.61 C0.7 59.99, 1.12 57.38, 1.67 54.81 C2.23 52.25, 2.93 49.7, 3.75 47.22 C4.57 44.73, 5.53 42.28, 6.62 39.91 C7.7 37.54, 8.91 35.22, 10.24 32.99 C11.57 30.76, 13.02 28.6, 14.57 26.54 C16.13 24.49, 17.8 22.51, 19.57 20.65 C21.33 18.79, 23.2 17.02, 25.15 15.38 C27.1 13.74, 29.15 12.21, 31.26 10.81 C33.37 9.41, 35.57 8.12, 37.82 6.98 C40.06 5.84, 42.39 4.83, 44.74 3.96 C47.09 3.09, 49.51 2.35, 51.94 1.77 C54.37 1.18, 56.85 0.74, 59.32 0.44 C61.8 0.15, 64.31 0, 66.8 0 C69.3 0, 71.81 0.15, 74.28 0.44 C76.76 0.74, 79.24 1.18, 81.67 1.77 C84.1 2.35, 86.51 3.09, 88.87 3.96 C91.22 4.83, 93.54 5.84, 95.79 6.98 C98.03 8.12, 100.23 9.41, 102.34 10.81 C104.46 12.21, 106.5 13.74, 108.45 15.38 C110.4 17.02, 112.28 18.79, 114.04 20.65 C115.8 22.51, 117.48 24.49, 119.03 26.54 C120.59 28.6, 122.04 30.76, 123.37 32.99 C124.69 35.22, 125.91 37.54, 126.99 39.91 C128.07 42.28, 129.03 44.73, 129.86 47.22 C130.68 49.7, 131.38 52.25, 131.93 54.81 C132.49 57.38, 132.91 59.99, 133.19 62.61 C133.47 65.22, 133.54 69.18, 133.61 70.5 C133.68 71.82, 133.68 69.18, 133.61 70.5" stroke="#1e1e1e" stroke-width="4" fill="none"></path></g><g transform="translate(1334.5627336536054 2255.1833002453423) rotate(0 29.600000381469727 25)"><text x="29.600000381469727" y="17.52" font-family="Virgil, Segoe UI Emoji" font-size="20px" fill="#1e1e1e" text-anchor="middle" style="white-space: pre;" direction="ltr" dominant-baseline="alphabetic">Read </text><text x="29.600000381469727" y="42.519999999999996" font-family="Virgil, Segoe UI Emoji" font-size="20px" fill="#1e1e1e" text-anchor="middle" style="white-space: pre;" direction="ltr" dominant-baseline="alphabetic">DB</text></g><g stroke-linecap="round" transform="translate(1493.7755383340846 2209.534328318994) rotate(0 66.80315365531351 70.5)"><path d="M133.61 70.5 C133.61 73.13, 133.47 75.78, 133.19 78.39 C132.91 81.01, 132.49 83.62, 131.93 86.19 C131.38 88.75, 130.68 91.3, 129.86 93.78 C129.03 96.27, 128.07 98.72, 126.99 101.09 C125.91 103.46, 124.69 105.78, 123.37 108.01 C122.04 110.24, 120.59 112.4, 119.03 114.46 C117.48 116.51, 115.8 118.49, 114.04 120.35 C112.28 122.21, 110.4 123.98, 108.45 125.62 C106.5 127.26, 104.46 128.79, 102.34 130.19 C100.23 131.59, 98.03 132.88, 95.79 134.02 C93.54 135.16, 91.22 136.17, 88.87 137.04 C86.51 137.91, 84.1 138.65, 81.67 139.23 C79.24 139.82, 76.76 140.26, 74.28 140.56 C71.81 140.85, 69.3 141, 66.8 141 C64.31 141, 61.8 140.85, 59.32 140.56 C56.85 140.26, 54.37 139.82, 51.94 139.23 C49.51 138.65, 47.09 137.91, 44.74 137.04 C42.39 136.17, 40.06 135.16, 37.82 134.02 C35.57 132.88, 33.37 131.59, 31.26 130.19 C29.15 128.79, 27.1 127.26, 25.15 125.62 C23.2 123.98, 21.33 122.21, 19.57 120.35 C17.8 118.49, 16.13 116.51, 14.57 114.46 C13.02 112.4, 11.57 110.24, 10.24 108.01 C8.91 105.78, 7.7 103.46, 6.62 101.09 C5.53 98.72, 4.57 96.27, 3.75 93.78 C2.93 91.3, 2.23 88.75, 1.67 86.19 C1.12 83.62, 0.7 81.01, 0.42 78.39 C0.14 75.78, 0 73.13, 0 70.5 C0 67.87, 0.14 65.22, 0.42 62.61 C0.7 59.99, 1.12 57.38, 1.67 54.81 C2.23 52.25, 2.93 49.7, 3.75 47.22 C4.57 44.73, 5.53 42.28, 6.62 39.91 C7.7 37.54, 8.91 35.22, 10.24 32.99 C11.57 30.76, 13.02 28.6, 14.57 26.54 C16.13 24.49, 17.8 22.51, 19.57 20.65 C21.33 18.79, 23.2 17.02, 25.15 15.38 C27.1 13.74, 29.15 12.21, 31.26 10.81 C33.37 9.41, 35.57 8.12, 37.82 6.98 C40.06 5.84, 42.39 4.83, 44.74 3.96 C47.09 3.09, 49.51 2.35, 51.94 1.77 C54.37 1.18, 56.85 0.74, 59.32 0.44 C61.8 0.15, 64.31 0, 66.8 0 C69.3 0, 71.81 0.15, 74.28 0.44 C76.76 0.74, 79.24 1.18, 81.67 1.77 C84.1 2.35, 86.51 3.09, 88.87 3.96 C91.22 4.83, 93.54 5.84, 95.79 6.98 C98.03 8.12, 100.23 9.41, 102.34 10.81 C104.46 12.21, 106.5 13.74, 108.45 15.38 C110.4 17.02, 112.28 18.79, 114.04 20.65 C115.8 22.51, 117.48 24.49, 119.03 26.54 C120.59 28.6, 122.04 30.76, 123.37 32.99 C124.69 35.22, 125.91 37.54, 126.99 39.91 C128.07 42.28, 129.03 44.73, 129.86 47.22 C130.68 49.7, 131.38 52.25, 131.93 54.81 C132.49 57.38, 132.91 59.99, 133.19 62.61 C133.47 65.22, 133.54 69.18, 133.61 70.5 C133.68 71.82, 133.68 69.18, 133.61 70.5" stroke="#1e1e1e" stroke-width="4" fill="none"></path></g><g transform="translate(1530.7417286536074 2255.1833002453423) rotate(0 29.600000381469727 25)"><text x="29.600000381469727" y="17.52" font-family="Virgil, Segoe UI Emoji" font-size="20px" fill="#1e1e1e" text-anchor="middle" style="white-space: pre;" direction="ltr" dominant-baseline="alphabetic">Read </text><text x="29.600000381469727" y="42.519999999999996" font-family="Virgil, Segoe UI Emoji" font-size="20px" fill="#1e1e1e" text-anchor="middle" style="white-space: pre;" direction="ltr" dominant-baseline="alphabetic">DB</text></g><g mask="url(#mask-ZG_BGR9M9EufqDqfzn3gu)" stroke-linecap="round"><g transform="translate(1543.2884637498864 2417.0170650503424) rotate(0 29.864939281196712 -39.29597273841864)"><path d="M0 0 C8.91 -1.57, 43.49 3.67, 53.44 -9.43 C63.4 -22.53, 58.68 -67.07, 59.73 -78.59 M0 0 C8.91 -1.57, 43.49 3.67, 53.44 -9.43 C63.4 -22.53, 58.68 -67.07, 59.73 -78.59" stroke="#1e1e1e" stroke-width="4" fill="none"></path></g><g transform="translate(1543.2884637498864 2417.0170650503424) rotate(0 29.864939281196712 -39.29597273841864)"><path d="M68.36 -55.13 C65.14 -63.89, 61.92 -72.65, 59.73 -78.59 M68.36 -55.13 C66 -61.56, 63.63 -67.99, 59.73 -78.59" stroke="#1e1e1e" stroke-width="4" fill="none"></path></g><g transform="translate(1543.2884637498864 2417.0170650503424) rotate(0 29.864939281196712 -39.29597273841864)"><path d="M51.26 -55.07 C54.42 -63.85, 57.58 -72.63, 59.73 -78.59 M51.26 -55.07 C53.58 -61.51, 55.9 -67.96, 59.73 -78.59" stroke="#1e1e1e" stroke-width="4" fill="none"></path></g></g><mask id="mask-ZG_BGR9M9EufqDqfzn3gu"><rect x="0" y="0" fill="#fff" width="1703.0183423122799" height="2595.6090105271796"></rect><rect x="1576.2809859111949" y="2395.0860315931204" fill="#000" width="40.900001525878906" height="25" opacity="1"></rect></mask><g transform="translate(1576.2809859111949 2395.0860315931204) rotate(0 -3.015294450600777 -17.364939281196712)"><text x="20.450000762939453" y="17.52" font-family="Virgil, Segoe UI Emoji" font-size="20px" fill="#1e1e1e" text-anchor="middle" style="white-space: pre;" direction="ltr" dominant-baseline="alphabetic">Sync</text></g><g mask="url(#mask-Mf2obKeGWQ4tnau10eoKG)" stroke-linecap="round"><g transform="translate(1390.8200895248228 2428.019937417099) rotate(0 -33.794536555040395 -41.65373110272412)"><path d="M0 0 C-9.69 0.79, -46.89 19.39, -58.16 4.72 C-69.42 -9.95, -66.02 -72.57, -67.59 -88.02 M0 0 C-9.69 0.79, -46.89 19.39, -58.16 4.72 C-69.42 -9.95, -66.02 -72.57, -67.59 -88.02" stroke="#1e1e1e" stroke-width="4" fill="none"></path></g><g transform="translate(1390.8200895248228 2428.019937417099) rotate(0 -33.794536555040395 -41.65373110272412)"><path d="M-58.45 -64.75 C-61.76 -73.16, -65.06 -81.57, -67.59 -88.02 M-58.45 -64.75 C-60.67 -70.41, -62.89 -76.06, -67.59 -88.02" stroke="#1e1e1e" stroke-width="4" fill="none"></path></g><g transform="translate(1390.8200895248228 2428.019937417099) rotate(0 -33.794536555040395 -41.65373110272412)"><path d="M-75.55 -64.32 C-72.67 -72.89, -69.8 -81.45, -67.59 -88.02 M-75.55 -64.32 C-73.62 -70.08, -71.68 -75.84, -67.59 -88.02" stroke="#1e1e1e" stroke-width="4" fill="none"></path></g></g><mask id="mask-Mf2obKeGWQ4tnau10eoKG"><rect x="0" y="0" fill="#fff" width="1558.4091626349036" height="2620.758433079769"></rect><rect x="1306.195382696671" y="2420.23545414571" fill="#000" width="52.93333435058594" height="25" opacity="1"></rect></mask><g transform="translate(1306.195382696671 2420.23545414571) rotate(0 50.830170273111435 -31.059516006484046)"><text x="26.46666717529297" y="17.52" font-family="Virgil, Segoe UI Emoji" font-size="20px" fill="#1e1e1e" text-anchor="middle" style="white-space: pre;" direction="ltr" dominant-baseline="alphabetic">async</text></g><g stroke-linecap="round" transform="translate(1276.2336161620915 2085.359055138084) rotate(0 175.57411449999927 34.580456009811314)"><path d="M17.29 0 C121.49 0, 225.68 0, 333.86 0 M17.29 0 C121.1 0, 224.92 0, 333.86 0 M333.86 0 C345.38 0, 351.15 5.76, 351.15 17.29 M333.86 0 C345.38 0, 351.15 5.76, 351.15 17.29 M351.15 17.29 C351.15 29.95, 351.15 42.62, 351.15 51.87 M351.15 17.29 C351.15 27.11, 351.15 36.93, 351.15 51.87 M351.15 51.87 C351.15 63.4, 345.38 69.16, 333.86 69.16 M351.15 51.87 C351.15 63.4, 345.38 69.16, 333.86 69.16 M333.86 69.16 C233.45 69.16, 133.04 69.16, 17.29 69.16 M333.86 69.16 C256.31 69.16, 178.75 69.16, 17.29 69.16 M17.29 69.16 C5.76 69.16, 0 63.4, 0 51.87 M17.29 69.16 C5.76 69.16, 0 63.4, 0 51.87 M0 51.87 C0 40.81, 0 29.75, 0 17.29 M0 51.87 C0 44.4, 0 36.92, 0 17.29 M0 17.29 C0 5.76, 5.76 0, 17.29 0 M0 17.29 C0 5.76, 5.76 0, 17.29 0" stroke="#1e1e1e" stroke-width="4" fill="none"></path></g><g transform="translate(1423.2910642497372 2107.4395111478952) rotate(0 28.516666412353516 12.5)"><text x="28.516666412353516" y="17.52" font-family="Virgil, Segoe UI Emoji" font-size="20px" fill="#1e1e1e" text-anchor="middle" style="white-space: pre;" direction="ltr" dominant-baseline="alphabetic">Cache</text></g><g stroke-linecap="round" transform="translate(1215.6004441620898 2068.068827133182) rotate(0 245.99278934250106 212.19825278746066)"><path d="M32 0 C149.21 0, 266.42 0, 459.99 0 M32 0 C199.98 0, 367.96 0, 459.99 0 M459.99 0 C481.32 0, 491.99 10.67, 491.99 32 M459.99 0 C481.32 0, 491.99 10.67, 491.99 32 M491.99 32 C491.99 105.41, 491.99 178.81, 491.99 392.4 M491.99 32 C491.99 108.88, 491.99 185.76, 491.99 392.4 M491.99 392.4 C491.99 413.73, 481.32 424.4, 459.99 424.4 M491.99 392.4 C491.99 413.73, 481.32 424.4, 459.99 424.4 M459.99 424.4 C315.52 424.4, 171.06 424.4, 32 424.4 M459.99 424.4 C297.06 424.4, 134.13 424.4, 32 424.4 M32 424.4 C10.67 424.4, 0 413.73, 0 392.4 M32 424.4 C10.67 424.4, 0 413.73, 0 392.4 M0 392.4 C0 251.34, 0 110.28, 0 32 M0 392.4 C0 310.77, 0 229.14, 0 32 M0 32 C0 10.67, 10.67 0, 32 0 M0 32 C0 10.67, 10.67 0, 32 0" stroke="#1e1e1e" stroke-width="4" fill="none"></path></g><g mask="url(#mask-B0sCTt7TjxwGgEfGmYz_p)" stroke-linecap="round"><g transform="translate(1408.1103171444192 1950.3797484705065) rotate(0 1.5718389095382008 55.80028128855702)"><path d="M0 0 C0.52 18.6, 2.62 93, 3.14 111.6 M0 0 C0.52 18.6, 2.62 93, 3.14 111.6" stroke="#1e1e1e" stroke-width="4" fill="none"></path></g><g transform="translate(1408.1103171444192 1950.3797484705065) rotate(0 1.5718389095382008 55.80028128855702)"><path d="M-6.06 88.36 C-2.93 96.28, 0.21 104.19, 3.14 111.6 M-6.06 88.36 C-3.19 95.61, -0.32 102.87, 3.14 111.6" stroke="#1e1e1e" stroke-width="4" fill="none"></path></g><g transform="translate(1408.1103171444192 1950.3797484705065) rotate(0 1.5718389095382008 55.80028128855702)"><path d="M11.03 87.88 C8.34 95.96, 5.66 104.04, 3.14 111.6 M11.03 87.88 C8.57 95.28, 6.11 102.69, 3.14 111.6" stroke="#1e1e1e" stroke-width="4" fill="none"></path></g></g><mask id="mask-B0sCTt7TjxwGgEfGmYz_p"><rect x="0" y="0" fill="#fff" width="1511.2539949634956" height="2161.9803110476205"></rect><rect x="1375.5988239921935" y="1993.680029759067" fill="#000" width="68.16666412353516" height="25" opacity="1"></rect></mask><g transform="translate(1375.5988239921935 1993.680029759067) rotate(0 34.08333206176394 12.499999999996362)"><text x="34.08333206176758" y="17.52" font-family="Virgil, Segoe UI Emoji" font-size="20px" fill="#1e1e1e" text-anchor="middle" style="white-space: pre;" direction="ltr" dominant-baseline="alphabetic">update</text></g><g mask="url(#mask-yzBLu492oREZ8c7Ot02g0)" stroke-linecap="round"><g transform="translate(689.7799354861199 2011.6814659424417) rotate(0 260.13933952833395 146.18101858691807)"><path d="M0 0 C0.26 46.11, -85.14 227.92, 1.57 276.64 C88.28 325.37, 433.83 289.74, 520.28 292.36 M0 0 C0.26 46.11, -85.14 227.92, 1.57 276.64 C88.28 325.37, 433.83 289.74, 520.28 292.36" stroke="#1e1e1e" stroke-width="4" fill="none"></path></g><g transform="translate(689.7799354861199 2011.6814659424417) rotate(0 260.13933952833395 146.18101858691807)"><path d="M497.1 301.73 C504.28 298.82, 511.46 295.92, 520.28 292.36 M497.1 301.73 C504.01 298.93, 510.93 296.14, 520.28 292.36" stroke="#1e1e1e" stroke-width="4" fill="none"></path></g><g transform="translate(689.7799354861199 2011.6814659424417) rotate(0 260.13933952833395 146.18101858691807)"><path d="M496.5 284.63 C503.87 287.03, 511.23 289.42, 520.28 292.36 M496.5 284.63 C503.59 286.94, 510.69 289.24, 520.28 292.36" stroke="#1e1e1e" stroke-width="4" fill="none"></path></g></g><mask id="mask-yzBLu492oREZ8c7Ot02g0"><rect x="0" y="0" fill="#fff" width="1310.0586145427878" height="2404.043503116278"></rect><rect x="672.5684415709547" y="2275.8251140209104" fill="#000" width="37.56666564941406" height="25" opacity="1"></rect></mask><g transform="translate(672.5684415709547 2275.8251140209104) rotate(0 258.69089191117746 -112.8996409770698)"><text x="18.78333282470703" y="17.52" font-family="Virgil, Segoe UI Emoji" font-size="20px" fill="#1e1e1e" text-anchor="middle" style="white-space: pre;" direction="ltr" dominant-baseline="alphabetic">/api</text></g></svg>